<?xml version="1.0" encoding="utf-8"?>
<!-- Generator: Adobe Illustrator 24.1.2, SVG Export Plug-In . SVG Version: 6.00 Build 0)  -->
<svg version="1.1" id="Camada_1" xmlns="http://www.w3.org/2000/svg" xmlns:xlink="http://www.w3.org/1999/xlink" x="0px" y="0px"
	 viewBox="0 0 41.2 41.2" style="enable-background:new 0 0 41.2 41.2;" xml:space="preserve">
<style type="text/css">
	.st0{fill:#FFFFFF;}
</style>
<path class="st0" d="M25,18.7c-1.5,0-2.7,1.3-2.7,2.9c0,1.6,1.2,2.9,2.7,2.9c1.5,0,2.7-1.3,2.7-2.9C27.8,20,26.5,18.7,25,18.7z"/>
<path class="st0" d="M20.6,0C9.2,0,0,9.2,0,20.6s9.2,20.6,20.6,20.6s20.6-9.2,20.6-20.6S31.9,0,20.6,0z M29.7,30.7
	c-0.6,0.1-1.2,0.3-1.7,0.1c-0.6-0.2-0.8-0.8-1.2-1.2c-0.2-0.2-0.3-0.4-0.5-0.5c-0.2-0.2-0.2-0.3,0.1-0.4c1-0.3,1.9-0.8,2.7-1.4
	c0.4-0.3,0.9-0.7,1.2-1.2c-3,2-6.4,2.6-9.8,2.6c-3.5,0-6.9-0.6-9.8-2.7c0,0-0.1,0-0.1-0.1c0-0.1-0.1-0.1-0.1,0c0,0,0,0.1,0.1,0.1
	c0,0,0,0,0.1,0.1c1,1.3,2.3,2,3.8,2.6c0.5,0.2,0.5,0.2,0.1,0.5c-0.4,0.5-0.9,1-1.3,1.5c-0.1,0.1-0.2,0.2-0.4,0.2
	c-3-0.1-5.5-1.1-7.5-3.5C5.1,27.1,5,26.8,5,26.5c0.1-5.2,1.4-10,3.7-14.7c0.1-0.2,0.2-0.3,0.4-0.4c2-1.3,4.2-2.2,6.6-2.5
	c0.1,0,0.2,0,0.3,0c0.2,0,0.4,0,0.4,0.2c0,0.2-0.2,0.2-0.3,0.2c-1.9,0.6-3.7,1.4-5.4,2.5c-0.1,0.1-0.3,0.2-0.4,0.3
	c0,0-0.1,0-0.1,0.1c0,0,0.1,0,0.1,0c3.7-2,7.7-2.4,11.9-2.2c2.1,0.1,4.3,0.5,6.3,1.2c0.6,0.2,1.1,0.5,1.7,0.7c0,0,0.1,0,0.1,0
	c0,0,0-0.1,0-0.1c-1.4-1-3-1.6-4.6-2.2c-0.4-0.1-0.9-0.3-1.3-0.4c0.2-0.3,0.4-0.4,0.7-0.3c2.5,0.3,4.8,1.2,6.9,2.6
	c0.2,0.1,0.2,0.3,0.3,0.4c1.9,3.9,3.1,7.9,3.5,12.2c0.1,0.8,0.1,1.7,0.2,2.6c0,0.3-0.1,0.5-0.2,0.8C34.1,29.2,32.1,30.3,29.7,30.7z"
	/>
<path class="st0" d="M15.5,18.7c-1.5,0-2.7,1.3-2.7,2.9c0,1.6,1.2,2.9,2.7,2.9c1.5,0,2.7-1.3,2.7-2.9C18.2,20,17,18.7,15.5,18.7z"/>
<g>
</g>
<g>
</g>
<g>
</g>
<g>
</g>
<g>
</g>
<g>
</g>
<g>
</g>
<g>
</g>
<g>
</g>
<g>
</g>
<g>
</g>
</svg>
