<?xml version="1.0" encoding="utf-8"?>
<!-- Generator: Adobe Illustrator 25.2.1, SVG Export Plug-In . SVG Version: 6.00 Build 0)  -->
<svg version="1.1" id="Camada_1" xmlns="http://www.w3.org/2000/svg" xmlns:xlink="http://www.w3.org/1999/xlink" x="0px" y="0px"
	 viewBox="0 0 90.1 50.4" style="enable-background:new 0 0 90.1 50.4;" xml:space="preserve">
<style type="text/css">
	.st0{opacity:0.65;fill:#8BA727;}
	.st1{fill:#90BF21;}
	.st2{opacity:0.1;}
	.st3{fill:#E0ECCC;}
	.st4{opacity:0.44;}
</style>
<g>
	<path class="st0" d="M61,46.7c0,0,6-6.8,13.8-11c7.8-4.3,14-4,15-5.4c1-1.4-8.6-5.3-13.8-5.5c-5.3-0.2-7.3,3.2-7.3,3.2
		s5.7-6,6.1-9.2c0.4-3.2,2.9-7.7,0.2-7c-2.7,0.7-11.6,6-11.6,6s3.9-5.5,4.3-9.2C68.1,4.6,68.8,2,68,2C67.2,1.9,54.9,7,50.5,12
		c-4.4,5-5.4,8.5-5.4,8.5s0-8.8,2-10.8c2.1-2.1-5.3-2.1-11,0.7c-5.8,2.8-10.7,6.4-10.7,6.4s-0.1-6.3,2.5-9.4
		c2.6-3.1-6.4-1.1-10.4,1.5c-4,2.6-13.3,9.6-13.5,18.3C3.7,36,52.3,50.7,61,46.7z"/>
	<path class="st1" d="M59.7,48.6c0,0,5.2-7.9,12.5-13.3c7.3-5.5,13.5-5.9,14.3-7.5c0.8-1.6-9.1-4.6-14.3-4.2
		c-5.2,0.4-6.9,4.2-6.9,4.2s5-7.1,5-10.5s2-8.5-0.6-7.5c-2.6,1-10.9,7.7-10.9,7.7s3.2-6.3,3.2-10.3c0-4,0.4-6.9-0.4-6.9
		c-0.8,0-12.5,6.9-16.4,12.7c-3.8,5.9-4.4,9.7-4.4,9.7s-1-9.3,0.8-11.7c1.8-2.4-5.5-1.6-10.9,2c-5.5,3.6-9.9,8.1-9.9,8.1
		s-0.8-6.7,1.4-10.3c2.2-3.6-6.5-0.4-10.2,2.8C8.4,16.9,0,25.4,0.8,34.7C1.6,44,51.4,53.9,59.7,48.6z"/>
	<g class="st2">
		<path class="st3" d="M85.1,27.3c-0.6-1.3-8.3-2.4-13.1-2.1c-4.9,0.3-10.9,6.7-10.9,6.7s7.6-12.9,8.5-16.5c0.9-3.6,1.9-6.5,1-5.7
			c-0.8,0.8-11.9,6.9-15.4,11.4c-3.4,4.5-17.4,23.8,5.9,17.5c0,0,10.3-7.8,16.7-8.9C84.1,28.6,85.8,28.6,85.1,27.3z"/>
		<path class="st3" d="M60.9,0.7c-0.7,0.4-12.1,7.8-16.2,14.9c-4.1,7.1-6.1,15-5.3,17.6c0.8,2.6,12.6-14.2,18.1-21.6
			C62.9,4.2,62.7-0.3,60.9,0.7z"/>
		<path class="st3" d="M40.1,10.3c-1.3,0.3-10.2,2.1-18.2,11.1c-7.9,9-7.1,15.4-6,16.6C17,39.2,26,30.7,33.5,22
			C41,13.2,42.9,9.7,40.1,10.3z"/>
		<path class="st3" d="M12.9,28.8c0.9-8.5,8.6-18.6,8.6-18.6c1.1-1.5-4.2-1.3-13.2,9.5c-9.1,10.7,1.1,21.1,3.6,21.7
			C14.4,42.1,12,37.3,12.9,28.8z"/>
	</g>
	<g class="st4">
		<path class="st3" d="M73.9,24.2c-5.5,0.5-10.4,5.1-10.4,5.1s10.4-4.5,13.8-3.5c3.4,0.9,3.7,1.4,2.7,2.1c-1,0.6-12.2,6.1-14,9.9
			c0,0,8.5-6.4,13-7.7c4.5-1.3,7.1-1.8,7-2.5C86,26.8,79.3,23.6,73.9,24.2z"/>
		<path class="st3" d="M68.4,14.6c0.2,1.4-4.9,13.5-4.9,13.5s2.1-2.7,4.1-6.8c2.1-4.1,2.8-10.1,2.7-10.7c-0.1-0.6-0.3,0-2.9,1.5
			c-2.6,1.5-8.5,6.7-8.5,6.7S68.1,13.2,68.4,14.6z"/>
		<path class="st3" d="M60.5,1.5c-1.2,1.2-11.4,8.7-11.4,8.7s-4.7,7.8-1.4,3.4s10.3-8.3,10.3-7c0,1.3-1.8,12.8-1.6,12.6
			c0.1-0.2,4.1-9.5,4.6-11.9C61.6,4.9,61.7,0.4,60.5,1.5z"/>
		<path class="st3" d="M40.1,10.3c-1-0.2-9.9,3.4-14.3,7.4s-5.8,7.1-5.8,7.1s10.6-8.2,13.7-9.5c3.1-1.3,3.6,0.9,3.6,3.3
			c0,2.5,1.8,9.2,1.8,9.2l0.3-5.8c0,0-0.4-6.4,0.6-8.8C40.7,10.8,41,10.5,40.1,10.3z"/>
		<path class="st3" d="M20.7,14.4c1.1-4.1,1.7-4.5,0.9-4.5c-0.8,0-6.2,0.4-11.7,6.8C4.6,23,2.6,30,2.6,30s6.8-11.5,10.5-13.8
			c3.7-2.4,6.8-4.3,6.2-1.5c-0.6,2.8,0,9.1,0,9.1l1.1-2.6C20.3,21.2,19.7,18.4,20.7,14.4z"/>
	</g>
</g>
<g>
</g>
<g>
</g>
<g>
</g>
<g>
</g>
<g>
</g>
<g>
</g>
</svg>
