<?xml version="1.0" encoding="utf-8"?>
<!-- Generator: Adobe Illustrator 25.2.1, SVG Export Plug-In . SVG Version: 6.00 Build 0)  -->
<svg version="1.1" id="Camada_1" xmlns="http://www.w3.org/2000/svg" xmlns:xlink="http://www.w3.org/1999/xlink" x="0px" y="0px"
	 viewBox="0 0 261 57.1" style="enable-background:new 0 0 261 57.1;" xml:space="preserve">
<style type="text/css">
	.st0{fill-rule:evenodd;clip-rule:evenodd;fill:url(#SVGID_1_);}
	.st1{opacity:0.35;fill-rule:evenodd;clip-rule:evenodd;fill:url(#SVGID_2_);}
</style>
<linearGradient id="SVGID_1_" gradientUnits="userSpaceOnUse" x1="127.7868" y1="120.3624" x2="132.2786" y2="14.8029">
	<stop  offset="0" style="stop-color:#B5E1FA"/>
	<stop  offset="0.4517" style="stop-color:#D2EBF6"/>
	<stop  offset="1" style="stop-color:#EDF6F1"/>
</linearGradient>
<path class="st0" d="M261,56.9l-83,0.1l-33.2,0l-6.2,0L0,57.1c0,0,1.1-3,3-5.5c1.2-1.5,2.7-2.8,4.4-3.1c3.6-0.5,9.4,4.4,11.9,6.8
	c0.7,0.7,1.2,1.1,1.2,1.1s1.8-6,5.8-13c5.1-8.8,13.8-19.4,27.4-21.6C74.6,18.4,76,42.6,75.8,51.6c0,2-0.2,3.3-0.2,3.3
	s0.1-0.2,0.3-0.5c0-0.1,0.1-0.2,0.1-0.3c0.1-0.2,0.2-0.4,0.4-0.7c0.1-0.3,0.3-0.5,0.5-0.8c0.3-0.6,0.8-1.2,1.2-1.8
	c0.1-0.1,0.2-0.2,0.3-0.4c0.1-0.1,0.2-0.2,0.3-0.4c0.2-0.2,0.4-0.5,0.6-0.7c1.2-1.3,2.6-2.4,4.3-2.9c3-0.8,4.5,2.8,5.2,5.5
	c0,0,0,0,0,0c0.1,0.6,0.2,1.1,0.3,1.5c0,0.1,0,0.3,0.1,0.4c0,0.2,0,0.3,0.1,0.4l0-0.1c0-0.1,0-0.2,0-0.4c-0.1-2.4-0.4-10.2,1.6-19
	c1.3-5.7,3.6-11.8,7.4-17.4c0.6-0.8,1.2-1.7,1.9-2.5c5.1-6.2,12.5-11.5,23.4-14c33.3-7.7,58.7,30.2,67.7,46.3
	c2.3,4.2,3.6,6.8,3.6,6.8s0.2-0.3,0.6-0.8c0.1-0.1,0.1-0.2,0.2-0.3c0.3-0.5,0.8-1.1,1.3-1.8c0.3-0.4,0.7-0.9,1.1-1.4
	c0.1-0.2,0.3-0.3,0.4-0.5c1.9-2.2,4.5-4.7,7.4-6.4c1.6-1,3.4-1.7,5.3-2c0.3,0,0.5-0.1,0.8-0.1c9.6-0.7,15.2,12.1,15.2,12.1
	s2.6-2.2,5-2.5c1.8-0.2,7.6,3.2,16.8,5.2l0,0c1.3,0.3,2.7,0.5,4.1,0.7c0.5,0.1,1,0.1,1.5,0.2c0.5,0.1,1,0.1,1.5,0.2
	C257.7,56.8,259.3,56.9,261,56.9z"/>
<linearGradient id="SVGID_2_" gradientUnits="userSpaceOnUse" x1="130.2489" y1="18.6244" x2="130.5686" y2="71.0458">
	<stop  offset="0" style="stop-color:#FFFFFF"/>
	<stop  offset="0.1417" style="stop-color:#EBEBF7"/>
	<stop  offset="0.4395" style="stop-color:#B7BADF"/>
	<stop  offset="0.8655" style="stop-color:#6271B5"/>
	<stop  offset="1" style="stop-color:#455CA7"/>
</linearGradient>
<path class="st1" d="M100,35.6c0,0,4.6-3.7,13.2-2.6c8.7,1.1,24.6,18.9,24.6,18.9S104.2,51.8,100,35.6z M256.2,56.6
	c-0.5,0-1-0.1-1.5-0.2c-0.5-0.1-1-0.1-1.5-0.2c-1.4-0.2-2.8-0.5-4.1-0.7l0,0c-16.3,2.8-21.8-2.7-21.8-2.7s-18.6,4.4-28.8-3.6
	c-0.1,0.2-0.3,0.3-0.4,0.5c-0.4,0.5-0.8,0.9-1.1,1.4c-0.5,0.7-1,1.3-1.3,1.8c-0.1,0.1-0.1,0.2-0.2,0.3c-0.4,0.5-0.6,0.8-0.6,0.8
	s-1.2-2.7-3.6-6.8c-40.4,10.8-75.1-11.9-93-29.8c-3.9,5.5-6.1,11.7-7.4,17.4c-2,8.8-1.8,16.6-1.6,19c0,0.1,0,0.3,0,0.4l0,0.1
	c0-0.1,0-0.3-0.1-0.4c0-0.1,0-0.3-0.1-0.4c-0.1-0.4-0.2-0.9-0.3-1.5l0.3,2.1c0,0-7.5,3-9.8-4.8c-0.2,0.3-0.4,0.5-0.6,0.7
	c-0.1,0.1-0.2,0.2-0.3,0.4c-0.1,0.1-0.2,0.2-0.3,0.4c-0.5,0.6-0.9,1.3-1.2,1.8c-0.2,0.3-0.3,0.6-0.5,0.8c-0.1,0.2-0.3,0.5-0.4,0.7
	c-0.1,0.1-0.1,0.2-0.1,0.3c-0.2,0.3-0.3,0.5-0.3,0.5s0.1-1.3,0.2-3.3c-4.1,2.7-9.7,4.4-17.4,4.5C35.7,56.3,28.5,48,26.3,43.5
	c-4,7-5.8,13-5.8,13s-0.4-0.5-1.2-1.1C16.3,55.5,7.4,55.7,3,51.6c-1.9,2.5-3,5.5-3,5.5L138.5,57c-8.3-0.4-35.5-1.7-38.7-2.9
	c-3.8-1.4-4.5-2-4.5-2c12.8-8,42.2,3.7,45.3,4.9l4.1,0c2.2-2.3,6.1-4.8,12.4-5.6c7-0.8,15.2,2.6,20.8,5.6l83-0.1
	C259.3,56.9,257.7,56.8,256.2,56.6z"/>
<g>
</g>
<g>
</g>
<g>
</g>
<g>
</g>
<g>
</g>
<g>
</g>
</svg>
