<?xml version="1.0" encoding="utf-8"?>
<!-- Generator: Adobe Illustrator 25.2.1, SVG Export Plug-In . SVG Version: 6.00 Build 0)  -->
<svg version="1.1" id="Camada_1" xmlns="http://www.w3.org/2000/svg" xmlns:xlink="http://www.w3.org/1999/xlink" x="0px" y="0px"
	 viewBox="0 0 2086.1 2551.8" style="enable-background:new 0 0 2086.1 2551.8;" xml:space="preserve">
<style type="text/css">
	.st0{fill:#91D407;}
	.st1{opacity:0.1;}
	.st2{fill:#E0ECCC;}
	.st3{opacity:0.44;}
	.st4{opacity:0.65;fill:#8BA727;enable-background:new    ;}
	.st5{opacity:0.1;fill:#E0ECCC;enable-background:new    ;}
</style>
<g>
	<g>
		<path class="st0" d="M1975.9,194.8c0,0-1.2-9.3,1.6-14.3c2.8-5,3.2-8.7-4-5.7s-10.3,7.1-10.3,7.1s7.3-17,4-16.8
			c-3.2,0.2-14.5,10.7-17.4,15.7c-2.8,5-4.4,11.1-4.4,11.1s-2.2-10.9-2.2-16.4s0.2-8.7,0-8.3s-15.3,10.9-16.6,16.2
			c-1.2,5.2,2.2-9.7,2.2-11.9s-8.3,4.4-12.1,9.9c-3.8,5.5-5.9,13.3-5.9,13.3s-2.8-18.4-8.7-21.8c-5.9-3.4-20.8-2.2-19.4-1.2
			s6.3,6.9,6.3,6.9s-9.3-2.6-16.2-0.4c-6.9,2.2-2.2,2.6,0,5.7c2.2,3,5.2,15.7,5.2,15.7s5.7,15.3,15.3,16.8c9.7,1.4,59.8-4.8,68-10.3
			C1969.8,200.7,1975.9,194.8,1975.9,194.8z"/>
		<g class="st1">
			<path class="st2" d="M1898.8,172.5c-6.4-2.3-14.4-1-14.2-0.7c0.2,0.3,6.7,5,8.3,8.7s-6.6-5.9-22.3-0.3c0,0,18.3,2.4,27.5,16.8
				c9.2,14.3,12,1.3,10.8-7S1905.1,174.8,1898.8,172.5z"/>
			<path class="st2" d="M1918.8,179.8c-6,7.5-5.8,23.5-5.8,23.5c-0.1,3.2,1.6,9,3.7,5.1s11.1-35.2,11.1-36
				S1924.7,172.4,1918.8,179.8z"/>
			<path class="st2" d="M1942.5,168.6c-2.8,0.4-13.7,10.7-16.7,18.6c-3,7.9-4.1,21.6-3.1,25.7c1,4.1,13.7-7.1,16.5-18.9
				C1941.9,182.3,1943.7,168.5,1942.5,168.6z"/>
			<path class="st2" d="M1978.2,175.1c-0.7-1.4-8,2.4-13.4,6.9s-6,5.7-3.9,1.3c2.1-4.3,7.5-17.1,5.6-17.1c-0.8,0-13,9.5-17.3,18.2
				c-4.2,8.7-6,25.4-5.8,26.1c0.3,0.8,24.4-17.7,27.9-23.3C1974.8,181.7,1978.9,176.5,1978.2,175.1z"/>
		</g>
		<g class="st3">
			<path class="st2" d="M1925.5,187.1c0,0.1-0.1,0.1-0.1,0.1C1925.5,187.2,1925.5,187.2,1925.5,187.1z"/>
			<path class="st2" d="M1942.5,168.6c-0.3-0.7-2.3,2.3-7.6,5.9c-4.9,3.3-8.8,11.4-9.4,12.6c1-1.5,13.8-13.4,15.2-13
				c0.8,0.2,0.9,3.5,0.9,5.9C1942,176,1942.8,169.2,1942.5,168.6z"/>
			<path class="st2" d="M1941.6,180c-0.1,0.9-0.1,1.6-0.1,2.1C1941.5,183.3,1941.6,181.9,1941.6,180z"/>
			<path class="st2" d="M1927.3,174.5c1-2.7,1.3-2.9,0-2.4s-7.9,5.7-10.7,11.3c-2.8,5.7-4.7,12-3.6,10.1c1.1-1.8,7-13.6,9.7-15.7
				c2.7-2.1,0,13.9,0,13.9S1926.4,177.2,1927.3,174.5z"/>
			<path class="st2" d="M1888,171.2c-2.7,0.1-4.3,0.6-1.9,1.9c2.4,1.3,8.2,9,8.2,9c0.8-1.1-4.6-9.7-1.4-9.4s12.3,7.6,13.6,9.4
				c1.3,1.7,0-2.9-3.1-7.3C1900.3,170.3,1890.7,171.1,1888,171.2z"/>
			<path class="st2" d="M1888.1,179.6c0,0-7.2-1.7-11.8-1.3c-4.6,0.4-6.3,1-5.8,1.9s4.3,3.9,6.2,8.2c1.9,4.4-1.1-5.1-2.1-6.5
				C1873.7,180.4,1894.7,181.7,1888.1,179.6z"/>
			<path class="st2" d="M1958.2,173c-5.4,6-10.6,15.4-10.6,15.4s15.5-18.7,15.5-16.5s-2.2,11.4-1.9,10.6c0.4-0.8,5.6-15.7,5.4-16.7
				C1966.5,164.8,1963.5,167,1958.2,173z"/>
			<path class="st2" d="M1977.8,174.5c-1.3,0-10.6,5.7-10.6,5.7s7.3-3.2,8.4-3.3c1-0.2-2.6,6.9-2.7,12.4s0.8,6.7,0.8,6.6
				c0-0.2,0.6-6.8,0.6-6.8s2.1-7.8,3.2-10.5C1978.6,175.9,1979.1,174.5,1977.8,174.5z"/>
		</g>
	</g>
	<g>
		<path class="st0" d="M1485.1,2384.7c0,0-1.2-9.3,1.6-14.3s3.2-8.7-4-5.7c-7.3,3-10.3,7.1-10.3,7.1s7.3-17,4-16.8
			s-14.5,10.7-17.4,15.7c-2.8,5-4.4,11.1-4.4,11.1s-2.2-10.9-2.2-16.4s0.2-8.7,0-8.3s-15.3,10.9-16.6,16.2
			c-1.2,5.2,2.2-9.7,2.2-11.9s-8.3,4.4-12.1,9.9c-3.8,5.5-5.9,13.3-5.9,13.3s-2.8-18.4-8.7-21.8s-20.8-2.2-19.4-1.2s6.3,6.9,6.3,6.9
			s-9.3-2.6-16.2-0.4c-6.9,2.2-2.2,2.6,0,5.7c2.2,3,5.2,15.7,5.2,15.7s5.7,15.3,15.3,16.8c9.7,1.4,59.8-4.8,68-10.3
			C1479,2390.5,1485.1,2384.7,1485.1,2384.7z"/>
		<g class="st1">
			<path class="st2" d="M1408,2362.3c-6.4-2.3-14.4-1-14.2-0.7c0.2,0.3,6.7,5,8.3,8.7c1.6,3.6-6.6-5.9-22.3-0.3
				c0,0,18.3,2.4,27.5,16.8c9.2,14.3,12,1.3,10.8-7C1416.8,2371.5,1414.3,2364.6,1408,2362.3z"/>
			<path class="st2" d="M1428,2369.7c-6,7.5-5.8,23.5-5.8,23.5c-0.1,3.2,1.6,9,3.7,5.1s11.1-35.2,11.1-36S1433.9,2362.2,1428,2369.7
				z"/>
			<path class="st2" d="M1451.7,2358.5c-2.8,0.4-13.7,10.7-16.7,18.6c-3,7.9-4.1,21.6-3.1,25.7c1,4.1,13.7-7.1,16.5-18.9
				C1451.1,2372.1,1452.9,2358.3,1451.7,2358.5z"/>
			<path class="st2" d="M1487.4,2365c-0.7-1.4-8,2.4-13.4,6.9c-5.5,4.4-6,5.7-3.9,1.3c2.1-4.3,7.5-17.1,5.6-17.1
				c-0.8,0-13,9.5-17.3,18.2c-4.2,8.7-6,25.4-5.8,26.1c0.3,0.8,24.4-17.7,27.9-23.3C1484,2371.5,1488.1,2366.3,1487.4,2365z"/>
		</g>
		<g class="st3">
			<path class="st2" d="M1434.8,2376.9c0,0.1-0.1,0.1-0.1,0.1C1434.7,2377.1,1434.7,2377,1434.8,2376.9z"/>
			<path class="st2" d="M1451.7,2358.5c-0.3-0.7-2.3,2.3-7.6,5.9c-4.9,3.3-8.8,11.4-9.4,12.6c1-1.5,13.8-13.4,15.2-13
				c0.8,0.2,0.9,3.5,0.9,5.9C1451.2,2365.9,1452,2359,1451.7,2358.5z"/>
			<path class="st2" d="M1450.9,2369.8c-0.1,0.9-0.1,1.6-0.1,2.1C1450.7,2373.2,1450.8,2371.8,1450.9,2369.8z"/>
			<path class="st2" d="M1436.5,2364.3c1-2.7,1.3-2.9,0-2.4s-7.9,5.7-10.7,11.3c-2.8,5.7-4.7,12-3.6,10.1s7-13.6,9.7-15.7
				c2.7-2.1,0,13.9,0,13.9S1435.6,2367.1,1436.5,2364.3z"/>
			<path class="st2" d="M1397.3,2361c-2.7,0.1-4.3,0.6-1.9,1.9c2.4,1.3,8.2,9,8.2,9c0.8-1.1-4.6-9.7-1.4-9.4s12.3,7.6,13.6,9.4
				s0-2.9-3.1-7.3C1409.5,2360.2,1399.9,2361,1397.3,2361z"/>
			<path class="st2" d="M1397.3,2369.4c0,0-7.2-1.7-11.8-1.3c-4.6,0.4-6.3,1-5.8,1.9s4.3,3.9,6.2,8.2c1.9,4.4-1.1-5.1-2.1-6.5
				S1404,2371.5,1397.3,2369.4z"/>
			<path class="st2" d="M1467.4,2362.8c-5.4,6-10.6,15.4-10.6,15.4s15.5-18.7,15.5-16.5s-2.2,11.4-1.9,10.6
				c0.4-0.8,5.6-15.7,5.4-16.7C1475.7,2354.7,1472.8,2356.8,1467.4,2362.8z"/>
			<path class="st2" d="M1487,2364.3c-1.3,0-10.6,5.7-10.6,5.7s7.3-3.2,8.4-3.3s-2.6,6.9-2.7,12.4c0,5.6,0.8,6.7,0.8,6.6
				c0-0.2,0.6-6.8,0.6-6.8s2.1-7.8,3.2-10.5S1488.3,2364.3,1487,2364.3z"/>
		</g>
	</g>
	<g>
		<path class="st0" d="M1364.1,709.4c0,0-1.2-9.3,1.6-14.3c2.8-5,3.2-8.7-4-5.7c-7.3,3-10.3,7.1-10.3,7.1s7.3-17,4-16.8
			c-3.2,0.2-14.5,10.7-17.4,15.7c-2.8,5-4.4,11.1-4.4,11.1s-2.2-10.9-2.2-16.4s0.2-8.7,0-8.3s-15.3,10.9-16.6,16.2
			c-1.2,5.2,2.2-9.7,2.2-11.9s-8.3,4.4-12.1,9.9c-3.8,5.5-5.9,13.3-5.9,13.3s-2.8-18.4-8.7-21.8c-5.9-3.4-20.8-2.2-19.4-1.2
			s6.3,6.9,6.3,6.9s-9.3-2.6-16.2-0.4c-6.9,2.2-2.2,2.6,0,5.7c2.2,3,5.2,15.7,5.2,15.7s5.7,15.3,15.3,16.8c9.7,1.4,59.8-4.8,68-10.3
			C1358,715.2,1364.1,709.4,1364.1,709.4z"/>
		<g class="st1">
			<path class="st2" d="M1287,687c-6.4-2.3-14.4-1-14.2-0.7c0.2,0.3,6.7,5,8.3,8.7c1.6,3.6-6.6-5.9-22.3-0.3c0,0,18.3,2.4,27.5,16.8
				c9.2,14.3,12,1.3,10.8-7S1293.3,689.3,1287,687z"/>
			<path class="st2" d="M1307,694.4c-6,7.5-5.8,23.5-5.8,23.5c-0.1,3.2,1.6,9,3.7,5.1s11.1-35.2,11.1-36
				C1316,686.1,1312.9,686.9,1307,694.4z"/>
			<path class="st2" d="M1330.7,683.2c-2.8,0.4-13.7,10.7-16.7,18.6c-3,7.9-4.1,21.6-3.1,25.7c1,4.1,13.7-7.1,16.5-18.9
				C1330.1,696.8,1331.9,683,1330.7,683.2z"/>
			<path class="st2" d="M1366.4,689.6c-0.7-1.4-8,2.4-13.4,6.9c-5.5,4.4-6,5.7-3.9,1.3c2.1-4.3,7.5-17.1,5.6-17.1
				c-0.8,0-13,9.5-17.3,18.2c-4.2,8.7-6,25.4-5.8,26.1c0.3,0.8,24.4-17.7,27.9-23.3C1363,696.2,1367.1,691,1366.4,689.6z"/>
		</g>
		<g class="st3">
			<path class="st2" d="M1313.7,701.6C1313.7,701.7,1313.6,701.7,1313.7,701.6C1313.7,701.8,1313.7,701.7,1313.7,701.6z"/>
			<path class="st2" d="M1330.7,683.2c-0.3-0.7-2.3,2.3-7.6,5.9c-4.9,3.3-8.8,11.4-9.4,12.6c1-1.5,13.8-13.4,15.2-13
				c0.8,0.2,0.9,3.5,0.9,5.9C1330.2,690.5,1331,683.7,1330.7,683.2z"/>
			<path class="st2" d="M1329.9,694.5c-0.1,0.9-0.1,1.6-0.1,2.1C1329.7,697.9,1329.8,696.5,1329.9,694.5z"/>
			<path class="st2" d="M1315.5,689c1-2.7,1.3-2.9,0-2.4s-7.9,5.7-10.7,11.3c-2.8,5.7-4.7,12-3.6,10.1c1.1-1.8,7-13.6,9.7-15.7
				c2.7-2.1,0,13.9,0,13.9S1314.6,691.8,1315.5,689z"/>
			<path class="st2" d="M1276.3,685.7c-2.7,0.1-4.3,0.6-1.9,1.9s8.2,9,8.2,9c0.8-1.1-4.6-9.7-1.4-9.4s12.3,7.6,13.6,9.4
				c1.3,1.7,0-2.9-3.1-7.3C1288.5,684.9,1278.9,685.7,1276.3,685.7z"/>
			<path class="st2" d="M1276.3,694.1c0,0-7.2-1.7-11.8-1.3c-4.6,0.4-6.3,1-5.8,1.9s4.3,3.9,6.2,8.2c1.9,4.4-1.1-5.1-2.1-6.5
				C1261.9,695,1282.9,696.2,1276.3,694.1z"/>
			<path class="st2" d="M1346.4,687.5c-5.4,6-10.6,15.4-10.6,15.4s15.5-18.7,15.5-16.5s-2.2,11.4-1.9,10.6
				c0.4-0.8,5.6-15.7,5.4-16.7C1354.7,679.4,1351.7,681.5,1346.4,687.5z"/>
			<path class="st2" d="M1366,689c-1.3,0-10.6,5.7-10.6,5.7s7.3-3.2,8.4-3.3c1-0.2-2.6,6.9-2.7,12.4c0,5.6,0.8,6.7,0.8,6.6
				c0-0.2,0.6-6.8,0.6-6.8s2.1-7.8,3.2-10.5S1367.3,689,1366,689z"/>
		</g>
	</g>
	<g>
		<path class="st0" d="M254.3,1810.1c0,0-1.2-9.3,1.6-14.3s3.2-8.7-4-5.7c-7.3,3-10.3,7.1-10.3,7.1s7.3-17,4-16.8
			s-14.5,10.7-17.4,15.7c-2.8,5-4.4,11.1-4.4,11.1s-2.2-10.9-2.2-16.4s0.2-8.7,0-8.3c-0.2,0.4-15.3,10.9-16.6,16.2
			c-1.2,5.2,2.2-9.7,2.2-11.9c0-2.2-8.3,4.4-12.1,9.9s-5.9,13.3-5.9,13.3s-2.8-18.4-8.7-21.8s-20.8-2.2-19.4-1.2
			c1.4,1,6.3,6.9,6.3,6.9s-9.3-2.6-16.2-0.4s-2.2,2.6,0,5.7c2.2,3,5.2,15.7,5.2,15.7s5.7,15.3,15.3,16.8c9.7,1.4,59.8-4.8,68-10.3
			C248.2,1816,254.3,1810.1,254.3,1810.1z"/>
		<g class="st1">
			<path class="st2" d="M177.2,1787.8c-6.4-2.3-14.4-1-14.2-0.7s6.7,5,8.3,8.7c1.6,3.6-6.6-5.9-22.3-0.3c0,0,18.3,2.4,27.5,16.8
				c9.2,14.3,12,1.3,10.8-7C186,1796.9,183.5,1790.1,177.2,1787.8z"/>
			<path class="st2" d="M197.2,1795.1c-6,7.5-5.8,23.5-5.8,23.5c-0.1,3.2,1.6,9,3.7,5.1c2.1-3.9,11.1-35.2,11.1-36
				S203.1,1787.7,197.2,1795.1z"/>
			<path class="st2" d="M220.9,1783.9c-2.8,0.4-13.7,10.7-16.7,18.6s-4.1,21.6-3.1,25.7s13.7-7.1,16.5-18.9
				C220.3,1797.6,222.1,1783.8,220.9,1783.9z"/>
			<path class="st2" d="M256.6,1790.4c-0.7-1.4-8,2.4-13.4,6.9c-5.5,4.4-6,5.7-3.9,1.3c2.1-4.3,7.5-17.1,5.6-17.1
				c-0.8,0-13,9.5-17.3,18.2c-4.2,8.7-6,25.4-5.8,26.1c0.3,0.8,24.4-17.7,27.9-23.3C253.2,1797,257.3,1791.8,256.6,1790.4z"/>
		</g>
		<g class="st3">
			<path class="st2" d="M203.9,1802.4c0,0.1-0.1,0.1-0.1,0.1C203.9,1802.5,203.9,1802.5,203.9,1802.4z"/>
			<path class="st2" d="M220.9,1783.9c-0.3-0.7-2.3,2.3-7.6,5.9c-4.9,3.3-8.8,11.4-9.4,12.6c1-1.5,13.8-13.4,15.2-13
				c0.8,0.2,0.9,3.5,0.9,5.9C220.4,1791.3,221.2,1784.5,220.9,1783.9z"/>
			<path class="st2" d="M220.1,1795.3c-0.1,0.9-0.1,1.6-0.1,2.1C219.9,1798.6,220,1797.2,220.1,1795.3z"/>
			<path class="st2" d="M205.7,1789.8c1-2.7,1.3-2.9,0-2.4s-7.9,5.7-10.7,11.3c-2.8,5.7-4.7,12-3.6,10.1c1.1-1.8,7-13.6,9.7-15.7
				s0,13.9,0,13.9S204.8,1792.5,205.7,1789.8z"/>
			<path class="st2" d="M166.5,1786.5c-2.7,0.1-4.3,0.6-1.9,1.9c2.4,1.3,8.2,9,8.2,9c0.8-1.1-4.6-9.7-1.4-9.4
				c3.2,0.3,12.3,7.6,13.6,9.4c1.3,1.7,0-2.9-3.1-7.3C178.7,1785.6,169.1,1786.4,166.5,1786.5z"/>
			<path class="st2" d="M166.5,1794.9c0,0-7.2-1.7-11.8-1.3c-4.6,0.4-6.3,1-5.8,1.9s4.3,3.9,6.2,8.2c1.9,4.4-1.1-5.1-2.1-6.5
				S173.2,1797,166.5,1794.9z"/>
			<path class="st2" d="M236.6,1788.3c-5.4,6-10.6,15.4-10.6,15.4s15.5-18.7,15.5-16.5s-2.2,11.4-1.9,10.6
				c0.4-0.8,5.6-15.7,5.4-16.7C244.9,1780.1,241.9,1782.3,236.6,1788.3z"/>
			<path class="st2" d="M256.2,1789.8c-1.3,0-10.6,5.7-10.6,5.7s7.3-3.2,8.4-3.3c1-0.2-2.6,6.9-2.7,12.4c0,5.6,0.8,6.7,0.8,6.6
				s0.6-6.8,0.6-6.8s2.1-7.8,3.2-10.5S257.5,1789.8,256.2,1789.8z"/>
		</g>
	</g>
	<g>
		<path class="st4" d="M1080.1,394.3c0,0,19.9-9.7,37.9-14c18.1-4.3,8.4-1.6,5.4-5s-25.3-5.3-26.1-5c-0.8,0.3,22.1-4.3,27.1-2
			s0.3-6.9-5.9-10.9c-6.2-4-30.2-2.1-30.2-2.1s5.4-10.7,1-21.9c-4.5-11.3-8.2-13.6-6.9-9.5c1.3,4.1,3.9,25.4-9.4,32.8
			C1059.6,364,1045.7,397.6,1080.1,394.3z"/>
		<path class="st0" d="M1079.8,405.1c0,0,14.6-21.4,32.7-25.7c18.1-4.3,8-3.7,5-7.1s-25.3-5.3-26.1-5c-0.8,0.3,22.1-4.3,27.1-2
			s0.3-6.9-5.9-10.9c-6.2-4-27.6-1.6-27.6-1.6s7.8-10.8,3.4-22.1c-4.5-11.3-8.8-10-7.5-5.9s-0.5,21.5-13.8,28.9
			C1053.8,361.1,1045.5,408.4,1079.8,405.1z"/>
		<g class="st1">
			<path class="st2" d="M1085.9,344.6c4.7-12.9-4.1-25.2-4.1-19.1c0,0,0.9,11.1-2.6,18s-10.3,12.3-10.3,14
				C1069,359.2,1081.2,357.5,1085.9,344.6z"/>
			<path class="st2" d="M1097.1,361c10-3,22.3,3.3,22.2,1.9c-0.1-1.4-4.6-6.9-13.4-9.7c-8.8-2.8-24.3,2.9-24.3,2.9
				C1068,362.1,1087,364,1097.1,361z"/>
			<path class="st2" d="M1119.3,374.6c-2.4-1.5-10-4.4-22.7-6c-12.6-1.6-21.5,2.6-21.5,2.6c-9.7,2.5-2,12.1,13.8,8.1
				C1104.6,375.3,1121.7,376.1,1119.3,374.6z"/>
		</g>
		<g class="st3">
			<path class="st2" d="M1115.5,372.9c-6-2.6-18.2-4.2-18.2-4.2s7.1,2.7,11.7,4.7s3.3,1.9-1.2,3.3c-4.4,1.4-11.8,9.6-11.8,9.6
				s2.9-2.3,8-4.9s16.3-5.2,17.6-5.9C1122.8,374.8,1121.5,375.5,1115.5,372.9z"/>
			<path class="st2" d="M1106.2,361.5c-5.6,0.3-14.9,3.6-14.9,3.6s14.3-3.1,20.4-2s7.6,1.3,7.5-0.2c0-1.5-5.8-7.2-9.1-8.7
				c-3.3-1.5-16.6-1.2-16.6-1.2s17,1.8,19.8,5.3C1116.1,361.7,1111.8,361.2,1106.2,361.5z"/>
			<path class="st2" d="M1083.7,324.6c0,0,5.6,9.3,3.6,17.5c-2,8.1-6.1,13.1-6.1,13.1s7.3-7.3,8.1-15.3
				C1090.1,331.9,1082.3,321.8,1083.7,324.6z"/>
		</g>
	</g>
	<g>
		<path class="st4" d="M1002.6,2370.1c0,0,19.9-9.7,37.9-14c18.1-4.3,8.4-1.6,5.4-5s-25.3-5.3-26.1-5s22.1-4.3,27.1-2
			s0.3-6.9-5.9-10.9s-30.2-2.1-30.2-2.1s5.4-10.7,1-21.9c-4.5-11.3-8.2-13.6-6.9-9.5s3.9,25.4-9.4,32.8
			C982.1,2339.9,968.2,2373.5,1002.6,2370.1z"/>
		<path class="st0" d="M1002.4,2380.9c0,0,14.6-21.4,32.7-25.7s8-3.7,5-7.1c-3-3.4-25.3-5.3-26.1-5s22.1-4.3,27.1-2
			s0.3-6.9-5.9-10.9s-27.6-1.6-27.6-1.6s7.8-10.8,3.4-22.1s-8.8-10-7.5-5.9s-0.5,21.5-13.8,28.9
			C976.3,2337,968,2384.2,1002.4,2380.9z"/>
		<g class="st1">
			<path class="st2" d="M1008.4,2320.5c4.7-12.9-4.1-25.2-4.1-19.1c0,0,0.9,11.1-2.6,18s-10.3,12.3-10.3,14
				C991.5,2335,1003.7,2333.3,1008.4,2320.5z"/>
			<path class="st2" d="M1019.6,2336.8c10-3,22.3,3.3,22.2,1.9c-0.1-1.4-4.6-6.9-13.4-9.7c-8.8-2.8-24.3,2.9-24.3,2.9
				C990.5,2338,1009.6,2339.9,1019.6,2336.8z"/>
			<path class="st2" d="M1041.8,2350.5c-2.4-1.5-10-4.4-22.7-6c-12.6-1.6-21.5,2.6-21.5,2.6c-9.7,2.5-2,12.1,13.8,8.1
				C1027.2,2351.1,1044.2,2351.9,1041.8,2350.5z"/>
		</g>
		<g class="st3">
			<path class="st2" d="M1038,2348.7c-6-2.6-18.2-4.2-18.2-4.2s7.1,2.7,11.7,4.7s3.3,1.9-1.2,3.3c-4.4,1.4-11.8,9.6-11.8,9.6
				s2.9-2.3,8-4.9c5-2.6,16.3-5.2,17.6-5.9S1044,2351.4,1038,2348.7z"/>
			<path class="st2" d="M1028.7,2337.3c-5.6,0.3-14.9,3.6-14.9,3.6s14.3-3.1,20.4-2s7.6,1.3,7.5-0.2s-5.8-7.2-9.1-8.7
				s-16.6-1.2-16.6-1.2s17,1.8,19.8,5.3S1034.3,2337.1,1028.7,2337.3z"/>
			<path class="st2" d="M1006.3,2300.5c0,0,5.6,9.3,3.6,17.5c-2,8.1-6.1,13.1-6.1,13.1s7.3-7.3,8.1-15.3
				C1012.6,2307.8,1004.8,2297.6,1006.3,2300.5z"/>
		</g>
	</g>
	<g>
		<path class="st0" d="M724.5,691c0,0,5.7-2.2,15.7-2.2c10.1,0,18.8,4.9,19,6.4s-12.1,4.7-12.1,4.7s10.3,3,13.9,8.6
			c3.6,5.6,4.6,13,2.6,12.3s-14.5-5.2-14.5-5.2s0.8,7.9-2.2,8.1c-3,0.2-12.7-7.3-17-12c-4.2-4.7-6.5-12-6.5-12s-0.8,13.8-4.8,17.2
			s-2.8,4.1-4,3.4c-1.2-0.7-9.5-9.5-9.5-17.4s0-7.9,0-7.9s-6.9,14.7-13.5,16.5c-6.7,1.9-5,0.2-5-2s-1.6-12.7-3.4-14.5
			c-1.8-1.9,27.3-11.8,33.3-10.3C722.5,686.3,724.5,691,724.5,691z"/>
		<g class="st1">
			<path class="st2" d="M746.8,721.9c0-1.3-7.9-14.1-1.7-10s17,8.4,18.4,8.1c1.4-0.3,0.5-4.8-7.3-13.2c-6-6.4-13.8-6.8-14.6-6.8
				c0.2,0,0.6,0,1.4-0.1c5.5-0.4,15-4.8,15-4.8s-7.5-1.3-15-0.8c-7.6,0.5-17,3.2-17,3.2c-3.2,0.9,5,14.4,8.9,17.5
				C738.8,718.1,746.8,723.2,746.8,721.9z"/>
			<path class="st2" d="M714.6,719.5c0.8-0.2,0.8-1.3,3.5-5.9c2.7-4.6,3.8-22.4,3.7-22.6c-3.9-10.1-14.1,5.4-14.4,13.6
				S713.8,719.7,714.6,719.5z"/>
			<path class="st2" d="M687.9,711.4c-0.1,1.4,5.3-1.6,9.9-6.7c4.5-5.1,7.7-14.4,7.7-14.4c2.2-6.8-8.6-10.3-7.8-6.2
				C698.5,688.1,688,709.9,687.9,711.4z"/>
		</g>
		<g class="st3">
			<path class="st2" d="M746.3,692c6.8,1.5,8,2.9,5.8,4.1c-2.2,1.2-7.6,3.5-6,3.3c0,0,8.8-2.3,11-3.3s1.9-1.5-1.2-2.7
				s-11.3-4.4-19.4-3c-8,1.4-9.9,1.9-9.9,1.9S739.5,690.5,746.3,692z"/>
			<path class="st2" d="M747,701c-1.4-0.1,2.7,2.7,7.1,5.7c4.4,3,9.3,11.6,5.3,9.9s-15-4.9-9.8-2.1s14.5,5.4,14.5,5.4
				s0.9-3.4-4.3-9.8C754.5,703.8,747,701,747,701z"/>
			<path class="st2" d="M743.4,718.9c-1.7-1.5-14.7-10.4-13.2-8.4s13.6,11.7,15,12.4s2.2,0.1,2.2-2.3c0-2.5-0.6-5-0.6-5
				C745.7,713.7,745,720.5,743.4,718.9z"/>
			<path class="st2" d="M714.2,719.5c0.8,0.8,1.2,0.4,2.4-1s4.5-8.5,4.5-8.5c0.8-5-5.1,5.9-6.2,6.5c-1.1,0.5-3.8-4-4.9-5.9
				c-1.1-1.9-4.8-9.1-2.5-2.1C709.7,715.5,713.4,718.7,714.2,719.5z"/>
			<path class="st2" d="M685.2,695.8c0.8,1.8,2.1,13.1,2.1,15.2c0,2.1,0.5,1.2,4.9-0.6s9.3-9.6,9.3-9.6c3.4-5-1.5,0.7-4.4,2.8
				c-2.8,2.1-7.6,4.2-8.1,1.5C688.4,702.3,684.4,693.9,685.2,695.8z"/>
		</g>
	</g>
	<g>
		<path class="st0" d="M296.6,552.9c0,0,5.7-2.2,15.7-2.2s18.8,4.9,19,6.4s-12.1,4.7-12.1,4.7s10.3,3,13.9,8.6s4.6,13,2.6,12.3
			s-14.5-5.2-14.5-5.2s0.8,7.9-2.2,8.1c-3,0.2-12.7-7.3-17-12c-4.2-4.7-6.5-12-6.5-12s-0.8,13.8-4.8,17.2s-2.8,4.1-4,3.4
			c-1.2-0.7-9.5-9.5-9.5-17.4s0-7.9,0-7.9s-6.9,14.7-13.5,16.5c-6.7,1.9-5,0.2-5-2s-1.6-12.7-3.4-14.5c-1.8-1.9,27.3-11.8,33.3-10.3
			C294.6,548.2,296.6,552.9,296.6,552.9z"/>
		<g class="st1">
			<path class="st2" d="M318.9,583.8c0-1.3-7.9-14.1-1.7-10c6.2,4.1,17,8.4,18.4,8.1c1.4-0.3,0.5-4.8-7.3-13.2
				c-6-6.4-13.8-6.8-14.6-6.8c0.2,0,0.6,0,1.4-0.1c5.5-0.4,15-4.8,15-4.8s-7.5-1.3-15-0.8c-7.6,0.5-17,3.2-17,3.2
				c-3.2,0.9,5,14.4,8.9,17.5C310.9,580,318.9,585.1,318.9,583.8z"/>
			<path class="st2" d="M286.7,581.4c0.8-0.2,0.8-1.3,3.5-5.9c2.7-4.6,3.8-22.4,3.7-22.6c-3.9-10.1-14.1,5.4-14.4,13.6
				C279.2,574.6,285.9,581.6,286.7,581.4z"/>
			<path class="st2" d="M260.1,573.3c-0.1,1.4,5.3-1.6,9.9-6.7c4.5-5.1,7.7-14.4,7.7-14.4c2.2-6.8-8.6-10.3-7.8-6.2
				C270.7,550,260.2,571.9,260.1,573.3z"/>
		</g>
		<g class="st3">
			<path class="st2" d="M318.5,553.9c6.8,1.5,8,2.9,5.8,4.1c-2.2,1.2-7.6,3.5-6,3.3c0,0,8.8-2.3,11-3.3s1.9-1.5-1.2-2.7
				s-11.3-4.4-19.4-3c-8,1.4-9.9,1.9-9.9,1.9S311.6,552.4,318.5,553.9z"/>
			<path class="st2" d="M319.2,563c-1.4-0.1,2.7,2.7,7.1,5.7s9.3,11.6,5.3,9.9c-4-1.7-15-4.9-9.8-2.1c5.2,2.8,14.5,5.4,14.5,5.4
				s0.9-3.4-4.3-9.8C326.6,565.7,319.2,563,319.2,563z"/>
			<path class="st2" d="M315.5,580.8c-1.7-1.5-14.7-10.4-13.2-8.4s13.6,11.7,15,12.4s2.2,0.1,2.2-2.3c0-2.5-0.6-5-0.6-5
				C317.9,575.6,317.2,582.4,315.5,580.8z"/>
			<path class="st2" d="M286.3,581.4c0.8,0.8,1.2,0.4,2.4-1c1.2-1.4,4.5-8.5,4.5-8.5c0.8-5-5.1,5.9-6.2,6.5c-1.1,0.5-3.8-4-4.9-5.9
				s-4.8-9.1-2.5-2.1C281.8,577.4,285.6,580.6,286.3,581.4z"/>
			<path class="st2" d="M257.4,557.7c0.8,1.8,2.1,13.1,2.1,15.2c0,2.1,0.5,1.2,4.9-0.6s9.3-9.6,9.3-9.6c3.4-5-1.5,0.7-4.4,2.8
				c-2.8,2.1-7.6,4.2-8.1,1.5C260.6,564.2,256.6,555.8,257.4,557.7z"/>
		</g>
	</g>
	<g>
		<path class="st0" d="M1888.2,1953.3c0,0,5.7-2.2,15.7-2.2s18.8,4.9,19,6.4s-12.1,4.7-12.1,4.7s10.3,3,13.9,8.6s4.6,13,2.6,12.3
			s-14.5-5.2-14.5-5.2s0.8,7.9-2.2,8.1s-12.7-7.3-17-12c-4.2-4.7-6.5-12-6.5-12s-0.8,13.8-4.8,17.2c-4,3.4-2.8,4.1-4,3.4
			s-9.5-9.5-9.5-17.4s0-7.9,0-7.9s-6.9,14.7-13.5,16.5c-6.7,1.9-5,0.2-5-2s-1.6-12.7-3.4-14.5c-1.8-1.9,27.3-11.8,33.3-10.3
			C1886.1,1948.6,1888.2,1953.3,1888.2,1953.3z"/>
		<g class="st1">
			<path class="st2" d="M1910.4,1984.3c0-1.3-7.9-14.1-1.7-10c6.2,4.1,17,8.4,18.4,8.1s0.5-4.8-7.3-13.2c-6-6.4-13.8-6.8-14.6-6.8
				c0.2,0,0.6,0,1.4-0.1c5.5-0.4,15-4.8,15-4.8s-7.5-1.3-15-0.8c-7.6,0.5-17,3.2-17,3.2c-3.2,0.9,5,14.4,8.9,17.5
				C1902.5,1980.5,1910.4,1985.6,1910.4,1984.3z"/>
			<path class="st2" d="M1878.2,1981.8c0.8-0.2,0.8-1.3,3.5-5.9s3.8-22.4,3.7-22.6c-3.9-10.1-14.1,5.4-14.4,13.6
				C1870.8,1975.1,1877.5,1982,1878.2,1981.8z"/>
			<path class="st2" d="M1851.6,1973.7c-0.1,1.4,5.3-1.6,9.9-6.7c4.5-5.1,7.7-14.4,7.7-14.4c2.2-6.8-8.6-10.3-7.8-6.2
				C1862.2,1950.4,1851.7,1972.3,1851.6,1973.7z"/>
		</g>
		<g class="st3">
			<path class="st2" d="M1910,1954.4c6.8,1.5,8,2.9,5.8,4.1s-7.6,3.5-6,3.3c0,0,8.8-2.3,11-3.3s1.9-1.5-1.2-2.7
				c-3.1-1.1-11.3-4.4-19.4-3c-8,1.4-9.9,1.9-9.9,1.9S1903.2,1952.9,1910,1954.4z"/>
			<path class="st2" d="M1910.7,1963.4c-1.4-0.1,2.7,2.7,7.1,5.7s9.3,11.6,5.3,9.9s-15-4.9-9.8-2.1s14.5,5.4,14.5,5.4
				s0.9-3.4-4.3-9.8C1918.2,1966.2,1910.7,1963.4,1910.7,1963.4z"/>
			<path class="st2" d="M1907,1981.3c-1.7-1.5-14.7-10.4-13.2-8.4s13.6,11.7,15,12.4c1.4,0.7,2.2,0.1,2.2-2.3s-0.6-5-0.6-5
				C1909.4,1976,1908.7,1982.8,1907,1981.3z"/>
			<path class="st2" d="M1877.9,1981.8c0.8,0.8,1.2,0.4,2.4-1s4.5-8.5,4.5-8.5c0.8-5-5.1,5.9-6.2,6.5c-1.1,0.5-3.8-4-4.9-5.9
				s-4.8-9.1-2.5-2.1C1873.3,1977.8,1877.1,1981.1,1877.9,1981.8z"/>
			<path class="st2" d="M1848.9,1958.1c0.8,1.8,2.1,13.1,2.1,15.2s0.5,1.2,4.9-0.6c4.4-1.8,9.3-9.6,9.3-9.6c3.4-5-1.5,0.7-4.4,2.8
				c-2.8,2.1-7.6,4.2-8.1,1.5C1852.1,1964.7,1848.1,1956.3,1848.9,1958.1z"/>
		</g>
	</g>
	<g>
		<path class="st0" d="M215.9,1084.6c0,0,5.7-2.2,15.7-2.2c10.1,0,18.8,4.9,19,6.4s-12.1,4.7-12.1,4.7s10.3,3,13.9,8.6
			c3.6,5.6,4.6,13,2.6,12.3c-2-0.7-14.5-5.2-14.5-5.2s0.8,7.9-2.2,8.1s-12.7-7.3-17-12c-4.2-4.7-6.5-12-6.5-12s-0.8,13.8-4.8,17.2
			c-4,3.4-2.8,4.1-4,3.4s-9.5-9.5-9.5-17.4s0-7.9,0-7.9s-6.9,14.7-13.5,16.5c-6.7,1.9-5,0.2-5-2s-1.6-12.7-3.4-14.5
			c-1.8-1.9,27.3-11.8,33.3-10.3C213.9,1079.9,215.9,1084.6,215.9,1084.6z"/>
		<g class="st1">
			<path class="st2" d="M238.2,1115.6c0-1.3-7.9-14.1-1.7-10s17,8.4,18.4,8.1s0.5-4.8-7.3-13.2c-6-6.4-13.8-6.8-14.6-6.8
				c0.2,0,0.6,0,1.4-0.1c5.5-0.4,15-4.8,15-4.8s-7.5-1.3-15-0.8c-7.6,0.5-17,3.2-17,3.2c-3.2,0.9,5,14.4,8.9,17.5
				C230.2,1111.8,238.2,1116.9,238.2,1115.6z"/>
			<path class="st2" d="M206,1113.1c0.8-0.2,0.8-1.3,3.5-5.9s3.8-22.4,3.7-22.6c-3.9-10.1-14.1,5.4-14.4,13.6
				C198.5,1106.4,205.2,1113.3,206,1113.1z"/>
			<path class="st2" d="M179.3,1105c-0.1,1.4,5.3-1.6,9.9-6.7c4.5-5.1,7.7-14.4,7.7-14.4c2.2-6.8-8.6-10.3-7.8-6.2
				S179.4,1103.6,179.3,1105z"/>
		</g>
		<g class="st3">
			<path class="st2" d="M237.7,1085.7c6.8,1.5,8,2.9,5.8,4.1s-7.6,3.5-6,3.3c0,0,8.8-2.3,11-3.3s1.9-1.5-1.2-2.7
				c-3.1-1.1-11.3-4.4-19.4-3c-8,1.4-9.9,1.9-9.9,1.9S230.9,1084.2,237.7,1085.7z"/>
			<path class="st2" d="M238.4,1094.7c-1.4-0.1,2.7,2.7,7.1,5.7c4.4,3,9.3,11.6,5.3,9.9s-15-4.9-9.8-2.1s14.5,5.4,14.5,5.4
				s0.9-3.4-4.3-9.8C245.9,1097.5,238.4,1094.7,238.4,1094.7z"/>
			<path class="st2" d="M234.8,1112.6c-1.7-1.5-14.7-10.4-13.2-8.4s13.6,11.7,15,12.4c1.4,0.7,2.2,0.1,2.2-2.3c0-2.5-0.6-5-0.6-5
				C237.1,1107.3,236.4,1114.1,234.8,1112.6z"/>
			<path class="st2" d="M205.6,1113.1c0.8,0.8,1.2,0.4,2.4-1s4.5-8.5,4.5-8.5c0.8-5-5.1,5.9-6.2,6.5c-1.1,0.5-3.8-4-4.9-5.9
				c-1.1-1.9-4.8-9.1-2.5-2.1C201.1,1109.1,204.8,1112.4,205.6,1113.1z"/>
			<path class="st2" d="M176.6,1089.4c0.8,1.8,2.1,13.1,2.1,15.2s0.5,1.2,4.9-0.6c4.4-1.8,9.3-9.6,9.3-9.6c3.4-5-1.5,0.7-4.4,2.8
				c-2.8,2.1-7.6,4.2-8.1,1.5C179.8,1096,175.8,1087.6,176.6,1089.4z"/>
		</g>
	</g>
	<g>
		<path class="st0" d="M528.6,2393.8c0,0,5.7-2.2,15.7-2.2c10.1,0,18.8,4.9,19,6.4s-12.1,4.7-12.1,4.7s10.3,3,13.9,8.6
			c3.6,5.6,4.6,13,2.6,12.3s-14.5-5.2-14.5-5.2s0.8,7.9-2.2,8.1c-3,0.2-12.7-7.3-17-12c-4.2-4.7-6.5-12-6.5-12s-0.8,13.8-4.8,17.2
			s-2.8,4.1-4,3.4c-1.2-0.7-9.5-9.5-9.5-17.4s0-7.9,0-7.9s-6.9,14.7-13.5,16.5c-6.7,1.9-5,0.2-5-2s-1.6-12.7-3.4-14.5
			c-1.8-1.9,27.3-11.8,33.3-10.3C526.6,2389.1,528.6,2393.8,528.6,2393.8z"/>
		<g class="st1">
			<path class="st2" d="M550.9,2424.8c0-1.3-7.9-14.1-1.7-10s17,8.4,18.4,8.1c1.4-0.3,0.5-4.8-7.3-13.2c-6-6.4-13.8-6.8-14.6-6.8
				c0.2,0,0.6,0,1.4-0.1c5.5-0.4,15-4.8,15-4.8s-7.5-1.3-15-0.8c-7.6,0.5-17,3.2-17,3.2c-3.2,0.9,5,14.4,8.9,17.5
				C542.9,2421,550.9,2426.1,550.9,2424.8z"/>
			<path class="st2" d="M518.7,2422.3c0.8-0.2,0.8-1.3,3.5-5.9c2.7-4.6,3.8-22.4,3.7-22.6c-3.9-10.1-14.1,5.4-14.4,13.6
				C511.2,2415.6,517.9,2422.5,518.7,2422.3z"/>
			<path class="st2" d="M492.1,2414.2c-0.1,1.4,5.3-1.6,9.9-6.7s7.7-14.4,7.7-14.4c2.2-6.8-8.6-10.3-7.8-6.2
				C502.6,2390.9,492.1,2412.8,492.1,2414.2z"/>
		</g>
		<g class="st3">
			<path class="st2" d="M550.4,2394.9c6.8,1.5,8,2.9,5.8,4.1c-2.2,1.2-7.6,3.5-6,3.3c0,0,8.8-2.3,11-3.3s1.9-1.5-1.2-2.7
				s-11.3-4.4-19.4-3c-8,1.4-9.9,1.9-9.9,1.9S543.6,2393.4,550.4,2394.9z"/>
			<path class="st2" d="M551.1,2403.9c-1.4-0.1,2.7,2.7,7.1,5.7s9.3,11.6,5.3,9.9s-15-4.9-9.8-2.1s14.5,5.4,14.5,5.4
				s0.9-3.4-4.3-9.8C558.6,2406.7,551.1,2403.9,551.1,2403.9z"/>
			<path class="st2" d="M547.5,2421.8c-1.7-1.5-14.7-10.4-13.2-8.4s13.6,11.7,15,12.4s2.2,0.1,2.2-2.3c0-2.5-0.6-5-0.6-5
				C549.8,2416.5,549.2,2423.3,547.5,2421.8z"/>
			<path class="st2" d="M518.3,2422.3c0.8,0.8,1.2,0.4,2.4-1s4.5-8.5,4.5-8.5c0.8-5-5.1,5.9-6.2,6.5s-3.8-4-4.9-5.9
				s-4.8-9.1-2.5-2.1C513.8,2418.3,517.5,2421.6,518.3,2422.3z"/>
			<path class="st2" d="M489.4,2398.6c0.8,1.8,2.1,13.1,2.1,15.2c0,2.1,0.5,1.2,4.9-0.6s9.3-9.6,9.3-9.6c3.4-5-1.5,0.7-4.4,2.8
				c-2.8,2.1-7.6,4.2-8.1,1.5C492.6,2405.2,488.5,2396.8,489.4,2398.6z"/>
		</g>
	</g>
	<g>
		<path class="st4" d="M750.4,96.8c0,0,7.4-1.5,16.3-9c9-7.5,9.8-10.1,8.1-4c-1.8,6.1-4,13.7,3.9,5.5s13.6-12.7,12.5-9.5
			s-12,19.3-5.3,15.5s25-21.9,24.8-18.4c-0.2,3.4-12.1,20.5-6.1,18.1c6-2.5,14.1-7.7,22.7-4.7c8.6,2.9-0.4,1.1-7.6,5.4
			c-7.2,4.3,0.9,2.5,8.1,5.1c7.2,2.6,1.9,1.1-5.7,7.5c-7.6,6.4-5.5,7.7,2.1,7.1s5.7,2-1.8,9c-7.5,7-20.2,8.5-20.2,8.5
			s5.7,2.9,12.1,2.2c6.3-0.7-0.3,4.7-9.8,5.3s-34.7-3.2-40.3,0C758.6,143.6,733.8,95,750.4,96.8z"/>
		<path class="st0" d="M746.6,94.3c0,0,6.9,2.3,15.8-5.2c9-7.5,9.8-10.1,8.1-4c-1.8,6.1-4,13.7,3.9,5.5s13.6-12.7,12.5-9.5
			s-12,19.3-5.3,15.5s25-21.9,24.8-18.4c-0.2,3.4-12.1,20.5-6.1,18.1s14.1-7.7,22.7-4.7c8.6,2.9-0.4,1.1-7.6,5.4
			c-7.2,4.3,0.9,2.5,8.1,5.1c7.2,2.6,1.9,1.1-5.7,7.5c-7.6,6.4-5.5,7.7,2.1,7.1s5.7,2-1.8,9c-7.5,7-20.2,8.5-20.2,8.5
			s5.7,2.9,12.1,2.2s-0.3,4.7-9.8,5.3s-34.7-3.2-40.3,0C754.3,144.9,729.9,92.5,746.6,94.3z"/>
		<g class="st1">
			<path class="st2" d="M811,137.4c-2.3,0.1-11.5-0.7-15-2.6c-3.5-1.9-16.9-3.9-10.8,2.4c0,0,11.8,4.9,18.5,3.4
				C810.2,139,813.2,137.3,811,137.4z"/>
			<path class="st2" d="M809.5,121c-7.1,1.8-20.5,7.3-11.3,9.2c9.2,1.8,22.9-9.2,25.4-11.6C824.5,117.6,816.6,119.1,809.5,121z"/>
			<path class="st2" d="M786.1,80.7c-0.4,0.1-8.8,7.6-12.1,11.3c-3.3,3.7-5.8,4.8-7.2,3s3.9-12,3.8-12.5c-0.1-0.5-0.6,0.6-3,3.1
				c-2.4,2.6-10.1,7.5-11.8,8.5c-3.7,2.1-2.3,8.1,0.9,9.2c3.3,1.1,16.3-2.2,18.8-5.4C778.1,94.7,786.5,80.5,786.1,80.7z"/>
			<path class="st2" d="M825,103.3c-2.4-0.8-9.8-3-15.3-2.9s10.1-7.5,13.2-7.3c3.2,0.3,0.2-2-2.3-2.1s-16.8,4.6-20.4,6.6
				c-3.6,2-2.8-4.1-1-7.1c1.7-3,8.6-13.8,4.4-10.2c-1.7,1.5-19.9,17.4-24.1,19.7c-4.2,2.4-10.7,7-1.2,8.1c9.4,1.1,37.3-2.3,42.4-3.3
				C825.6,104.1,827.4,104.1,825,103.3z"/>
		</g>
		<g class="st3">
			<path class="st2" d="M807.6,136.8c-4.7,0-9.9-1.9-9.9-1.9c-2.3-0.1,5.5,2.4,7.7,3s-7.3,2.1-3.4,2.1s7.7-1.5,8.9-2.2
				C812,137.1,812.2,136.8,807.6,136.8z"/>
			<path class="st2" d="M820.1,117.6c-2.6,0.5-5.5,0-5.5,0s-0.8,0.8,0.9,1.5c1.8,0.7,4.8-0.5,4.2,1.3s-12.7,9.1-12.7,9.1
				s5.6-1.7,9.4-4c3.7-2.4,7.4-6.6,7.2-7.6C823.5,116.9,822.7,117.1,820.1,117.6z"/>
			<path class="st2" d="M824.5,102.8c-2.2-0.6-10.7-2.1-10.7-2.1s0.5,1.1,2,1.8c1.6,0.6,7,1.3,5.7,2.6c-1.2,1.3-7.5,6.4-7.5,6.4
				s9.1-6.1,10.4-6.6C825.8,104.3,826.7,103.4,824.5,102.8z"/>
			<path class="st2" d="M817.4,93.8c-0.1,0.4-3.5,3-5,4c1.5-0.9,5.1-3,7.4-3.8c3-0.9,5.4-1.2,4.9-1.6c-0.5-0.3-3.4-1.4-8.3-0.9
				c-4.9,0.5-11.2,2.8-11.2,2.8S817.6,93.3,817.4,93.8z"/>
			<path class="st2" d="M812.4,97.9c-0.4,0.3-0.7,0.4-0.7,0.5C811.7,98.4,811.9,98.2,812.4,97.9z"/>
			<path class="st2" d="M799.3,91c2.2-4.2,5.8-10.4,6.2-11.3c0.3-0.9,0.2-1.8-1.3-0.6c-1.5,1.3-12.1,10.4-12.1,10.4
				c-5.1,4,7-4.4,8.3-5.7c1.3-1.3-0.4,1.7-2.6,5.5c-2.1,3.9-0.6,8-0.6,8S797.1,95.3,799.3,91z"/>
			<path class="st2" d="M768,85.1c-2.2,2.9-7.6,6.4-7.6,6.4s5.3-2.8,6.3-2.7c1,0.1,0.6,6.7,0.7,6.1c0.1-0.6,3-11.3,3.1-12.5
				C770.6,81.3,770.2,82.2,768,85.1z"/>
			<path class="st2" d="M784.9,82c0,0-6.1,8-7.2,11.7c-1.1,3.7-1.1,4.3-1,4.7c0.1,0.4,4.6-7,5.6-9.6C783.4,86.2,787.4,79.3,784.9,82
				z"/>
		</g>
	</g>
	<g>
		<path class="st4" d="M1808.5,1304.8c0,0,7.4-1.5,16.3-9c9-7.5,9.8-10.1,8.1-4c-1.8,6.1-4,13.7,3.9,5.5s13.6-12.7,12.5-9.5
			s-12,19.3-5.3,15.5s25-21.9,24.8-18.4c-0.2,3.4-12.1,20.5-6.1,18.1c6-2.5,14.1-7.7,22.7-4.7c8.6,2.9-0.4,1.1-7.6,5.4
			s0.9,2.5,8.1,5.1s1.9,1.1-5.7,7.5s-5.5,7.7,2.1,7.1s5.7,2-1.8,9s-20.2,8.5-20.2,8.5s5.7,2.9,12.1,2.2c6.3-0.7-0.3,4.7-9.8,5.3
			c-9.5,0.6-34.7-3.2-40.3,0C1816.7,1351.5,1791.8,1302.9,1808.5,1304.8z"/>
		<path class="st0" d="M1804.7,1302.2c0,0,6.9,2.3,15.8-5.2c9-7.5,9.8-10.1,8.1-4s-4,13.7,3.9,5.5s13.6-12.7,12.5-9.5
			s-12,19.3-5.3,15.5s25-21.9,24.8-18.4c-0.2,3.4-12.1,20.5-6.1,18.1c6-2.5,14.1-7.7,22.7-4.7c8.6,2.9-0.4,1.1-7.6,5.4
			s0.9,2.5,8.1,5.1s1.9,1.1-5.7,7.5s-5.5,7.7,2.1,7.1s5.7,2-1.8,9s-20.2,8.5-20.2,8.5s5.7,2.9,12.1,2.2c6.3-0.7-0.3,4.7-9.8,5.3
			c-9.5,0.6-34.7-3.2-40.3,0S1788,1300.4,1804.7,1302.2z"/>
		<g class="st1">
			<path class="st2" d="M1869,1345.3c-2.3,0.1-11.5-0.7-15-2.6s-16.9-3.9-10.8,2.4c0,0,11.8,4.9,18.5,3.4
				C1868.3,1346.9,1871.3,1345.2,1869,1345.3z"/>
			<path class="st2" d="M1867.6,1328.9c-7.1,1.8-20.5,7.3-11.3,9.2c9.2,1.8,22.9-9.2,25.4-11.6
				C1882.6,1325.5,1874.7,1327,1867.6,1328.9z"/>
			<path class="st2" d="M1844.1,1288.6c-0.4,0.1-8.8,7.6-12.1,11.3s-5.8,4.8-7.2,3s3.9-12,3.8-12.5s-0.6,0.6-3,3.1
				c-2.4,2.6-10.1,7.5-11.8,8.5c-3.7,2.1-2.3,8.1,0.9,9.2c3.3,1.1,16.3-2.2,18.8-5.4C1836.1,1302.6,1844.5,1288.4,1844.1,1288.6z"/>
			<path class="st2" d="M1883.1,1311.2c-2.4-0.8-9.8-3-15.3-2.9s10.1-7.5,13.2-7.3c3.2,0.3,0.2-2-2.3-2.1s-16.8,4.6-20.4,6.6
				s-2.8-4.1-1-7.1s8.6-13.8,4.4-10.2c-1.7,1.5-19.9,17.4-24.1,19.7c-4.2,2.4-10.7,7-1.2,8.1c9.4,1.1,37.3-2.3,42.4-3.3
				C1883.7,1312,1885.4,1312,1883.1,1311.2z"/>
		</g>
		<g class="st3">
			<path class="st2" d="M1865.6,1344.7c-4.7,0-9.9-1.9-9.9-1.9c-2.3-0.1,5.5,2.4,7.7,3s-7.3,2.1-3.4,2.1s7.7-1.5,8.9-2.2
				S1870.3,1344.8,1865.6,1344.7z"/>
			<path class="st2" d="M1878.2,1325.5c-2.6,0.5-5.5,0-5.5,0s-0.8,0.8,0.9,1.5s4.8-0.5,4.2,1.3c-0.6,1.8-12.7,9.1-12.7,9.1
				s5.6-1.7,9.4-4c3.7-2.4,7.4-6.6,7.2-7.6C1881.5,1324.8,1880.8,1325,1878.2,1325.5z"/>
			<path class="st2" d="M1882.6,1310.7c-2.2-0.6-10.7-2.1-10.7-2.1s0.5,1.1,2,1.8c1.6,0.6,7,1.3,5.7,2.6c-1.2,1.3-7.5,6.4-7.5,6.4
				s9.1-6.1,10.4-6.6C1883.9,1312.2,1884.7,1311.3,1882.6,1310.7z"/>
			<path class="st2" d="M1875.5,1301.7c-0.1,0.4-3.5,3-5,4c1.5-0.9,5.1-3,7.4-3.8c3-0.9,5.4-1.2,4.9-1.6c-0.5-0.3-3.4-1.4-8.3-0.9
				s-11.2,2.8-11.2,2.8S1875.6,1301.2,1875.5,1301.7z"/>
			<path class="st2" d="M1870.4,1305.8c-0.4,0.3-0.7,0.4-0.7,0.5C1869.7,1306.3,1870,1306.1,1870.4,1305.8z"/>
			<path class="st2" d="M1857.3,1298.9c2.2-4.2,5.8-10.4,6.2-11.3c0.3-0.9,0.2-1.8-1.3-0.6s-12.1,10.4-12.1,10.4
				c-5.1,4,7-4.4,8.3-5.7c1.3-1.3-0.4,1.7-2.6,5.5c-2.1,3.9-0.6,8-0.6,8S1855.2,1303.2,1857.3,1298.9z"/>
			<path class="st2" d="M1826.1,1293c-2.2,2.9-7.6,6.4-7.6,6.4s5.3-2.8,6.3-2.7s0.6,6.7,0.7,6.1s3-11.3,3.1-12.5
				C1828.7,1289.2,1828.3,1290.2,1826.1,1293z"/>
			<path class="st2" d="M1843,1289.9c0,0-6.1,8-7.2,11.7s-1.1,4.3-1,4.7c0.1,0.4,4.6-7,5.6-9.6
				C1841.5,1294.1,1845.4,1287.2,1843,1289.9z"/>
		</g>
	</g>
	<g>
		<path class="st4" d="M397.5,212.7c0,0,6-6.8,13.8-11c7.8-4.3,14-4,15-5.4s-8.6-5.3-13.8-5.5c-5.3-0.2-7.3,3.2-7.3,3.2
			s5.7-6,6.1-9.2s2.9-7.7,0.2-7c-2.7,0.7-11.6,6-11.6,6s3.9-5.5,4.3-9.2c0.4-3.8,1.1-6.4,0.3-6.4c-0.8-0.1-13.1,5-17.6,10.1
			c-4.4,5-5.4,8.5-5.4,8.5s0-8.8,2-10.8c2.1-2.1-5.3-2.1-11,0.7c-5.8,2.8-10.7,6.4-10.7,6.4s-0.1-6.3,2.5-9.4
			c2.6-3.1-6.4-1.1-10.4,1.5s-13.3,9.6-13.5,18.3C340.2,202,388.7,216.7,397.5,212.7z"/>
		<path class="st0" d="M396.2,214.6c0,0,5.2-7.9,12.5-13.3c7.3-5.5,13.5-5.9,14.3-7.5s-9.1-4.6-14.3-4.2c-5.2,0.4-6.9,4.2-6.9,4.2
			s5-7.1,5-10.5s2-8.5-0.6-7.5s-10.9,7.7-10.9,7.7s3.2-6.3,3.2-10.3s0.4-6.9-0.4-6.9s-12.5,6.9-16.4,12.7c-3.8,5.9-4.4,9.7-4.4,9.7
			s-1-9.3,0.8-11.7s-5.5-1.6-10.9,2c-5.5,3.6-9.9,8.1-9.9,8.1s-0.8-6.7,1.4-10.3c2.2-3.6-6.5-0.4-10.2,2.8s-12.2,11.7-11.4,21
			C338.1,210,387.9,219.9,396.2,214.6z"/>
		<g class="st1">
			<path class="st2" d="M421.6,193.3c-0.6-1.3-8.3-2.4-13.1-2.1c-4.9,0.3-10.9,6.7-10.9,6.7s7.6-12.9,8.5-16.5s1.9-6.5,1-5.7
				c-0.8,0.8-11.9,6.9-15.4,11.4c-3.4,4.5-17.4,23.8,5.9,17.5c0,0,10.3-7.8,16.7-8.9C420.6,194.6,422.2,194.7,421.6,193.3z"/>
			<path class="st2" d="M397.4,166.7c-0.7,0.4-12.1,7.8-16.2,14.9c-4.1,7.1-6.1,15-5.3,17.6c0.8,2.6,12.6-14.2,18.1-21.6
				C399.4,170.3,399.2,165.7,397.4,166.7z"/>
			<path class="st2" d="M376.5,176.3c-1.3,0.3-10.2,2.1-18.2,11.1c-7.9,9-7.1,15.4-6,16.6c1.1,1.2,10.1-7.3,17.6-16.1
				C377.4,179.2,379.3,175.7,376.5,176.3z"/>
			<path class="st2" d="M349.4,194.9c0.9-8.5,8.6-18.6,8.6-18.6c1.1-1.5-4.2-1.3-13.2,9.5c-9.1,10.7,1.1,21.1,3.6,21.7
				C350.9,208.1,348.5,203.4,349.4,194.9z"/>
		</g>
		<g class="st3">
			<path class="st2" d="M410.3,190.2c-5.5,0.5-10.4,5.1-10.4,5.1s10.4-4.5,13.8-3.5c3.4,0.9,3.7,1.4,2.7,2.1c-1,0.6-12.2,6.1-14,9.9
				c0,0,8.5-6.4,13-7.7s7.1-1.8,7-2.5C422.4,192.8,415.8,189.7,410.3,190.2z"/>
			<path class="st2" d="M404.8,180.6c0.2,1.4-4.9,13.5-4.9,13.5s2.1-2.7,4.1-6.8c2.1-4.1,2.8-10.1,2.7-10.7c-0.1-0.6-0.3,0-2.9,1.5
				s-8.5,6.7-8.5,6.7S404.6,179.2,404.8,180.6z"/>
			<path class="st2" d="M397,167.6c-1.2,1.2-11.4,8.7-11.4,8.7s-4.7,7.8-1.4,3.4c3.3-4.3,10.3-8.3,10.3-7s-1.8,12.8-1.6,12.6
				c0.1-0.2,4.1-9.5,4.6-11.9C398.1,171,398.2,166.4,397,167.6z"/>
			<path class="st2" d="M376.5,176.3c-1-0.2-9.9,3.4-14.3,7.4c-4.5,4-5.8,7.1-5.8,7.1s10.6-8.2,13.7-9.5s3.6,0.9,3.6,3.3
				c0,2.5,1.8,9.2,1.8,9.2l0.3-5.8c0,0-0.4-6.4,0.6-8.8C377.2,176.8,377.5,176.5,376.5,176.3z"/>
			<path class="st2" d="M357.2,180.4c1.1-4.1,1.7-4.5,0.9-4.5c-0.8,0-6.2,0.4-11.7,6.8C341,189.1,339,196,339,196
				s6.8-11.5,10.5-13.8c3.7-2.4,6.8-4.3,6.2-1.5c-0.6,2.8,0,9.1,0,9.1l1.1-2.6C356.8,187.2,356.1,184.4,357.2,180.4z"/>
		</g>
	</g>
	<g>
		<path class="st4" d="M1988.6,561.6c0,0,6-6.8,13.8-11s14-4,15-5.4s-8.6-5.3-13.8-5.5c-5.3-0.2-7.3,3.2-7.3,3.2s5.7-6,6.1-9.2
			s2.9-7.7,0.2-7c-2.7,0.7-11.6,6-11.6,6s3.9-5.5,4.3-9.2c0.4-3.8,1.1-6.4,0.3-6.4c-0.8-0.1-13.1,5-17.6,10.1
			c-4.4,5-5.4,8.5-5.4,8.5s0-8.8,2-10.8c2.1-2.1-5.3-2.1-11,0.7c-5.8,2.8-10.7,6.4-10.7,6.4s-0.1-6.3,2.5-9.4
			c2.6-3.1-6.4-1.1-10.4,1.5s-13.3,9.6-13.5,18.3C1931.3,550.9,1979.8,565.6,1988.6,561.6z"/>
		<path class="st0" d="M1987.3,563.5c0,0,5.2-7.9,12.5-13.3c7.3-5.5,13.5-5.9,14.3-7.5s-9.1-4.6-14.3-4.2c-5.2,0.4-6.9,4.2-6.9,4.2
			s5-7.1,5-10.5s2-8.5-0.6-7.5s-10.9,7.7-10.9,7.7s3.2-6.3,3.2-10.3s0.4-6.9-0.4-6.9s-12.5,6.9-16.4,12.7c-3.8,5.9-4.4,9.7-4.4,9.7
			s-1-9.3,0.8-11.7s-5.5-1.6-10.9,2c-5.5,3.6-9.9,8.1-9.9,8.1s-0.8-6.7,1.4-10.3c2.2-3.6-6.5-0.4-10.2,2.8s-12.2,11.7-11.4,21
			C1929.2,558.8,1979,568.7,1987.3,563.5z"/>
		<g class="st1">
			<path class="st2" d="M2012.7,542.2c-0.6-1.3-8.3-2.4-13.1-2.1c-4.9,0.3-10.9,6.7-10.9,6.7s7.6-12.9,8.5-16.5s1.9-6.5,1-5.7
				c-0.8,0.8-11.9,6.9-15.4,11.4c-3.4,4.5-17.4,23.8,5.9,17.5c0,0,10.3-7.8,16.7-8.9C2011.7,543.5,2013.3,543.5,2012.7,542.2z"/>
			<path class="st2" d="M1988.5,515.6c-0.7,0.4-12.1,7.8-16.2,14.9c-4.1,7.1-6.1,15-5.3,17.6c0.8,2.6,12.6-14.2,18.1-21.6
				C1990.5,519.1,1990.3,514.5,1988.5,515.6z"/>
			<path class="st2" d="M1967.6,525.2c-1.3,0.3-10.2,2.1-18.2,11.1s-7.1,15.4-6,16.6s10.1-7.3,17.6-16.1
				C1968.5,528.1,1970.4,524.5,1967.6,525.2z"/>
			<path class="st2" d="M1940.5,543.7c0.9-8.5,8.6-18.6,8.6-18.6c1.1-1.5-4.2-1.3-13.2,9.5c-9.1,10.7,1.1,21.1,3.6,21.7
				C1942,557,1939.6,552.2,1940.5,543.7z"/>
		</g>
		<g class="st3">
			<path class="st2" d="M2001.4,539c-5.5,0.5-10.4,5.1-10.4,5.1s10.4-4.5,13.8-3.5c3.4,0.9,3.7,1.4,2.7,2.1c-1,0.6-12.2,6.1-14,9.9
				c0,0,8.5-6.4,13-7.7s7.1-1.8,7-2.5C2013.5,541.6,2006.9,538.5,2001.4,539z"/>
			<path class="st2" d="M1995.9,529.5c0.2,1.4-4.9,13.5-4.9,13.5s2.1-2.7,4.1-6.8c2.1-4.1,2.8-10.1,2.7-10.7s-0.3,0-2.9,1.5
				s-8.5,6.7-8.5,6.7S1995.7,528.1,1995.9,529.5z"/>
			<path class="st2" d="M1988.1,516.4c-1.2,1.2-11.4,8.7-11.4,8.7s-4.7,7.8-1.4,3.4s10.3-8.3,10.3-7s-1.8,12.8-1.6,12.6
				c0.1-0.2,4.1-9.5,4.6-11.9C1989.2,519.8,1989.3,515.2,1988.1,516.4z"/>
			<path class="st2" d="M1967.6,525.2c-1-0.2-9.9,3.4-14.3,7.4c-4.5,4-5.8,7.1-5.8,7.1s10.6-8.2,13.7-9.5s3.6,0.9,3.6,3.3
				c0,2.5,1.8,9.2,1.8,9.2l0.3-5.8c0,0-0.4-6.4,0.6-8.8S1968.6,525.4,1967.6,525.2z"/>
			<path class="st2" d="M1948.3,529.2c1.1-4.1,1.7-4.5,0.9-4.5s-6.2,0.4-11.7,6.8c-5.4,6.4-7.4,13.3-7.4,13.3s6.8-11.5,10.5-13.8
				c3.7-2.4,6.8-4.3,6.2-1.5c-0.6,2.8,0,9.1,0,9.1l1.1-2.6C1947.9,536,1947.2,533.3,1948.3,529.2z"/>
		</g>
	</g>
	<g>
		<path class="st4" d="M706.4,1978.2c0,0,6-6.8,13.8-11c7.8-4.3,14-4,15-5.4s-8.6-5.3-13.8-5.5s-7.3,3.2-7.3,3.2s5.7-6,6.1-9.2
			s2.9-7.7,0.2-7s-11.6,6-11.6,6s3.9-5.5,4.3-9.2s1.1-6.4,0.3-6.4c-0.8-0.1-13.1,5-17.6,10.1c-4.4,5-5.4,8.5-5.4,8.5s0-8.8,2-10.8
			s-5.3-2.1-11,0.7c-5.8,2.8-10.7,6.4-10.7,6.4s-0.1-6.3,2.5-9.4s-6.4-1.1-10.4,1.5s-13.3,9.6-13.5,18.3
			C649.1,1967.4,697.7,1982.1,706.4,1978.2z"/>
		<path class="st0" d="M705.1,1980c0,0,5.2-7.9,12.5-13.3c7.3-5.5,13.5-5.9,14.3-7.5s-9.1-4.6-14.3-4.2s-6.9,4.2-6.9,4.2
			s5-7.1,5-10.5s2-8.5-0.6-7.5s-10.9,7.7-10.9,7.7s3.2-6.3,3.2-10.3s0.4-6.9-0.4-6.9s-12.5,6.9-16.4,12.7c-3.8,5.9-4.4,9.7-4.4,9.7
			s-1-9.3,0.8-11.7c1.8-2.4-5.5-1.6-10.9,2c-5.5,3.6-9.9,8.1-9.9,8.1s-0.8-6.7,1.4-10.3c2.2-3.6-6.5-0.4-10.2,2.8
			c-3.7,3.2-12.2,11.7-11.4,21C647,1975.4,696.8,1985.3,705.1,1980z"/>
		<g class="st1">
			<path class="st2" d="M730.5,1958.7c-0.6-1.3-8.3-2.4-13.1-2.1c-4.9,0.3-10.9,6.7-10.9,6.7s7.6-12.9,8.5-16.5s1.9-6.5,1-5.7
				c-0.8,0.8-11.9,6.9-15.4,11.4c-3.4,4.5-17.4,23.8,5.9,17.5c0,0,10.3-7.8,16.7-8.9C729.5,1960.1,731.1,1960.1,730.5,1958.7z"/>
			<path class="st2" d="M706.3,1932.1c-0.7,0.4-12.1,7.8-16.2,14.9c-4.1,7.1-6.1,15-5.3,17.6s12.6-14.2,18.1-21.6
				C708.3,1935.7,708.1,1931.1,706.3,1932.1z"/>
			<path class="st2" d="M685.4,1941.7c-1.3,0.3-10.2,2.1-18.2,11.1c-7.9,9-7.1,15.4-6,16.6s10.1-7.3,17.6-16.1
				C686.4,1944.7,688.3,1941.1,685.4,1941.7z"/>
			<path class="st2" d="M658.3,1960.3c0.9-8.5,8.6-18.6,8.6-18.6c1.1-1.5-4.2-1.3-13.2,9.5c-9.1,10.7,1.1,21.1,3.6,21.7
				S657.4,1968.8,658.3,1960.3z"/>
		</g>
		<g class="st3">
			<path class="st2" d="M719.2,1955.6c-5.5,0.5-10.4,5.1-10.4,5.1s10.4-4.5,13.8-3.5c3.4,0.9,3.7,1.4,2.7,2.1
				c-1,0.6-12.2,6.1-14,9.9c0,0,8.5-6.4,13-7.7c4.5-1.3,7.1-1.8,7-2.5C731.4,1958.2,724.7,1955.1,719.2,1955.6z"/>
			<path class="st2" d="M713.8,1946c0.2,1.4-4.9,13.5-4.9,13.5s2.1-2.7,4.1-6.8c2.1-4.1,2.8-10.1,2.7-10.7s-0.3,0-2.9,1.5
				c-2.6,1.5-8.5,6.7-8.5,6.7S713.5,1944.7,713.8,1946z"/>
			<path class="st2" d="M705.9,1933c-1.2,1.2-11.4,8.7-11.4,8.7s-4.7,7.8-1.4,3.4c3.3-4.3,10.3-8.3,10.3-7s-1.8,12.8-1.6,12.6
				s4.1-9.5,4.6-11.9C707,1936.4,707.1,1931.8,705.9,1933z"/>
			<path class="st2" d="M685.4,1941.7c-1-0.2-9.9,3.4-14.3,7.4c-4.5,4-5.8,7.1-5.8,7.1s10.6-8.2,13.7-9.5s3.6,0.9,3.6,3.3
				c0,2.5,1.8,9.2,1.8,9.2l0.3-5.8c0,0-0.4-6.4,0.6-8.8C686.1,1942.3,686.4,1941.9,685.4,1941.7z"/>
			<path class="st2" d="M666.1,1945.8c1.1-4.1,1.7-4.5,0.9-4.5s-6.2,0.4-11.7,6.8c-5.4,6.4-7.4,13.3-7.4,13.3s6.8-11.5,10.5-13.8
				c3.7-2.4,6.8-4.3,6.2-1.5s0,9.1,0,9.1l1.1-2.6C665.7,1952.6,665,1949.9,666.1,1945.8z"/>
		</g>
	</g>
	<g>
		<path class="st4" d="M1497.8,129.7c0,0-9-1.1-17,5.1c-8,6.2-7.5,13.8-6.5,9.1s0.9-9.8-6-3.2c-6.9,6.7-12,10.4-11.3,7.9
			s9.6-15.3,3.3-12c-6.3,3.3-22.3,18-22.6,15.4c-0.2-2.6,9.5-16.2,3.9-14c-5.7,2.2-13.2,6.6-22.2,4.9c-9-1.7,0.2-0.9,6.9-4.5
			c6.7-3.6-1.2-1.9-8.8-3.4s-2.1-0.8,4.7-6c6.8-5.3,4.5-6.2-3-5.3c-7.5,0.9-6-1.2,0.6-6.9s19.2-7.6,19.2-7.6s-6.1-1.9-12.4-1
			s-0.3-3.6,9.2-4.6c9.4-1,35.3,0.5,40.5-2.3S1514.8,130.2,1497.8,129.7z"/>
		<path class="st0" d="M1500.3,130.2c0,0-7.3,0-13.3,8.4s-6.1,10.6-6.4,5.3s-0.6-11.9-5.5-3.3c-4.8,8.6-8.8,13.7-8.8,10.9
			s5.1-18.5,0-13.7s-16.7,24.1-17.6,21.3s4.8-19.5,0-16s-10.9,9.9-20,9.9s0-1,5.5-6.3s-1.7-1.8-9.3-1.9s-2.2-0.4,3-7.5
			c5.1-7.1,2.7-7.6-4.2-5.1s-6.1,0-1.2-7.6c4.8-7.6,16.4-12.2,16.4-12.2s-6.4-0.8-12.1,1.5c-5.8,2.3-1.2-3.8,7.6-6.8
			c8.8-3,33.9-6.8,38.2-10.9C1476.7,92.2,1516.7,127.2,1500.3,130.2z"/>
		<g>
			<g class="st1">
				<path class="st2" d="M1425.5,113.5c2.1-0.7,11.1-2.5,15-1.9s17.3-1.4,9.5-4.8c0,0-12.8-0.7-18.6,2.3
					C1425.7,112,1423.4,114.1,1425.5,113.5z"/>
				<path class="st2" d="M1432.2,126c6.2-3.4,17.1-11.3,7.8-10.3c-9.3,1-18.7,13.4-20.3,16C1419.1,132.8,1426,129.4,1432.2,126z"/>
				<path class="st2" d="M1467.4,151.7c0.3-0.2,5.9-8.4,7.8-12.2c2-3.8,3.9-5.4,5.9-4.4c1.9,1,0.2,10.6,0.4,10.9
					c0.3,0.3,0.4-0.6,1.8-3.3c1.5-2.7,7.1-8.7,8.4-9.9c2.8-2.7-0.4-7-3.8-7s-14.7,6.1-16.1,9.3
					C1470.4,138.4,1467,151.9,1467.4,151.7z"/>
				<path class="st2" d="M1423.2,144.2c2.5,0,10.2-0.3,15.4-1.8c5.2-1.6-7.1,8.7-10.2,9.3s0.5,1.7,2.9,1.1
					c2.4-0.6,14.4-8.2,17.2-10.8c2.8-2.6,3.9,2.5,3.3,5.3s-3.7,13.3-0.9,9.3c1.1-1.6,13.3-19.1,16.5-22.1s7.9-8.4-1.4-6.8
					c-9.3,1.6-34.6,11.9-39.1,14C1422.4,143.7,1420.7,144.2,1423.2,144.2z"/>
			</g>
			<path class="st5" d="M1480.1,123.1c0,0-15.9,0.6-27.6,5.2c-11.7,4.5-16.4,7.3-15.3,6.1c1-1.3,3.8-12.2,18.4-14.8
				c14.6-2.5,11.7-3.3,8.2-3.9s-12.9,0.4-11.2-0.7c1.7-1.1,6.1-7.3,18.9-5.5C1484.2,111.3,1490.5,122,1480.1,123.1z"/>
		</g>
	</g>
	<g>
		<path class="st4" d="M1193.6,1862.9c0,0-9-1.1-17,5.1s-7.5,13.8-6.5,9.1c1-4.7,0.9-9.8-6-3.2c-6.9,6.7-12,10.4-11.3,7.9
			s9.6-15.3,3.3-12c-6.3,3.3-22.3,18-22.6,15.4s9.5-16.2,3.9-14c-5.7,2.2-13.2,6.6-22.2,4.9s0.2-0.9,6.9-4.5
			c6.7-3.6-1.2-1.9-8.8-3.4c-7.6-1.6-2.1-0.8,4.7-6s4.5-6.2-3-5.3c-7.5,0.9-6-1.2,0.6-6.9c6.6-5.8,19.2-7.6,19.2-7.6
			s-6.1-1.9-12.4-1s-0.3-3.6,9.2-4.6c9.4-1,35.3,0.5,40.5-2.3C1177.2,1831.7,1210.5,1863.4,1193.6,1862.9z"/>
		<path class="st0" d="M1196.1,1863.4c0,0-7.3,0-13.3,8.4c-6.1,8.4-6.1,10.6-6.4,5.3c-0.3-5.3-0.6-11.9-5.5-3.3s-8.8,13.7-8.8,10.9
			c0-2.8,5.1-18.5,0-13.7s-16.7,24.1-17.6,21.3c-0.9-2.8,4.8-19.5,0-16s-10.9,9.9-20,9.9s0-1,5.5-6.3s-1.7-1.8-9.3-1.9
			c-7.6-0.1-2.2-0.4,3-7.5c5.1-7.1,2.7-7.6-4.2-5.1c-7,2.5-6.1,0-1.2-7.6s16.4-12.2,16.4-12.2s-6.4-0.8-12.1,1.5
			c-5.8,2.3-1.2-3.8,7.6-6.8c8.8-3,33.9-6.8,38.2-10.9S1212.4,1860.4,1196.1,1863.4z"/>
		<g>
			<g class="st1">
				<path class="st2" d="M1121.3,1846.6c2.1-0.7,11.1-2.5,15-1.9s17.3-1.4,9.5-4.8c0,0-12.8-0.7-18.6,2.3
					C1121.4,1845.2,1119.1,1847.3,1121.3,1846.6z"/>
				<path class="st2" d="M1127.9,1859.2c6.2-3.4,17.1-11.3,7.8-10.3c-9.3,1-18.7,13.4-20.3,16
					C1114.8,1865.9,1121.8,1862.6,1127.9,1859.2z"/>
				<path class="st2" d="M1163.1,1884.8c0.3-0.2,5.9-8.4,7.8-12.2c2-3.8,3.9-5.4,5.9-4.4c1.9,1,0.2,10.6,0.4,10.9
					c0.3,0.3,0.4-0.6,1.8-3.3c1.5-2.7,7.1-8.7,8.4-9.9c2.8-2.7-0.4-7-3.8-7s-14.7,6.1-16.1,9.3
					C1166.1,1871.5,1162.7,1885,1163.1,1884.8z"/>
				<path class="st2" d="M1118.9,1877.4c2.5,0,10.2-0.3,15.4-1.8s-7.1,8.7-10.2,9.3c-3.1,0.6,0.5,1.7,2.9,1.1s14.4-8.2,17.2-10.8
					c2.8-2.6,3.9,2.5,3.3,5.3c-0.7,2.8-3.7,13.3-0.9,9.3c1.1-1.6,13.3-19.1,16.5-22.1s7.9-8.4-1.4-6.8s-34.6,11.9-39.1,14
					C1118.1,1876.9,1116.4,1877.4,1118.9,1877.4z"/>
			</g>
			<path class="st5" d="M1175.8,1856.2c0,0-15.9,0.6-27.6,5.2c-11.7,4.5-16.4,7.3-15.3,6.1c1-1.3,3.8-12.2,18.4-14.8
				s11.7-3.3,8.2-3.9s-12.9,0.4-11.2-0.7c1.7-1.1,6.1-7.3,18.9-5.5S1186.3,1855.2,1175.8,1856.2z"/>
		</g>
	</g>
	<g>
		<path class="st4" d="M516.5,1398.4c0,0-9-1.1-17,5.1s-7.5,13.8-6.5,9.1c1-4.7,0.9-9.8-6-3.2c-6.9,6.7-12,10.4-11.3,7.9
			s9.6-15.3,3.3-12c-6.3,3.3-22.3,18-22.6,15.4c-0.2-2.6,9.5-16.2,3.9-14c-5.7,2.2-13.2,6.6-22.2,4.9s0.2-0.9,6.9-4.5
			c6.7-3.6-1.2-1.9-8.8-3.4c-7.6-1.6-2.1-0.8,4.7-6c6.8-5.3,4.5-6.2-3-5.3c-7.5,0.9-6-1.2,0.6-6.9c6.6-5.8,19.2-7.6,19.2-7.6
			s-6.1-1.9-12.4-1s-0.3-3.6,9.2-4.6c9.4-1,35.3,0.5,40.5-2.3C500.2,1367.1,533.5,1398.8,516.5,1398.4z"/>
		<path class="st0" d="M519,1398.8c0,0-7.3,0-13.3,8.4s-6.1,10.6-6.4,5.3c-0.3-5.3-0.6-11.9-5.5-3.3c-4.8,8.6-8.8,13.7-8.8,10.9
			s5.1-18.5,0-13.7s-16.7,24.1-17.6,21.3s4.8-19.5,0-16s-10.9,9.9-20,9.9s0-1,5.5-6.3s-1.7-1.8-9.3-1.9c-7.6-0.1-2.2-0.4,3-7.5
			c5.1-7.1,2.7-7.6-4.2-5.1c-7,2.5-6.1,0-1.2-7.6c4.8-7.6,16.4-12.2,16.4-12.2s-6.4-0.8-12.1,1.5c-5.8,2.3-1.2-3.8,7.6-6.8
			s33.9-6.8,38.2-10.9S535.4,1395.8,519,1398.8z"/>
		<g>
			<g class="st1">
				<path class="st2" d="M444.2,1382.1c2.1-0.7,11.1-2.5,15-1.9s17.3-1.4,9.5-4.8c0,0-12.8-0.7-18.6,2.3
					C444.4,1380.6,442.1,1382.8,444.2,1382.1z"/>
				<path class="st2" d="M450.9,1394.7c6.2-3.4,17.1-11.3,7.8-10.3c-9.3,1-18.7,13.4-20.3,16C437.8,1401.4,444.7,1398,450.9,1394.7z
					"/>
				<path class="st2" d="M486.1,1420.3c0.3-0.2,5.9-8.4,7.8-12.2c2-3.8,3.9-5.4,5.9-4.4c1.9,1,0.2,10.6,0.4,10.9
					c0.3,0.3,0.4-0.6,1.8-3.3c1.5-2.7,7.1-8.7,8.4-9.9c2.8-2.7-0.4-7-3.8-7s-14.7,6.1-16.1,9.3
					C489.1,1407,485.7,1420.5,486.1,1420.3z"/>
				<path class="st2" d="M441.9,1412.8c2.5,0,10.2-0.3,15.4-1.8c5.2-1.6-7.1,8.7-10.2,9.3s0.5,1.7,2.9,1.1s14.4-8.2,17.2-10.8
					c2.8-2.6,3.9,2.5,3.3,5.3c-0.7,2.8-3.7,13.3-0.9,9.3c1.1-1.6,13.3-19.1,16.5-22.1s7.9-8.4-1.4-6.8s-34.6,11.9-39.1,14
					C441.1,1412.4,439.4,1412.8,441.9,1412.8z"/>
			</g>
			<path class="st5" d="M498.8,1391.7c0,0-15.9,0.6-27.6,5.2c-11.7,4.5-16.4,7.3-15.3,6.1c1-1.3,3.8-12.2,18.4-14.8
				c14.6-2.5,11.7-3.3,8.2-3.9s-12.9,0.4-11.2-0.7c1.7-1.1,6.1-7.3,18.9-5.5S509.2,1390.7,498.8,1391.7z"/>
		</g>
	</g>
	<g>
		<path class="st4" d="M1090.7,1258.1c0,0-6.1,5.9-14,9.6s-14.1,3.4-15.1,4.6s8.5,4.7,13.7,4.9c5.3,0.2,7.3-2.8,7.3-2.8
			s-5.8,5.2-6.2,8c-0.4,2.8-3,6.7-0.3,6.1s11.7-5.1,11.7-5.1s-3.9,4.8-4.4,8c-0.5,3.3-1.2,5.5-0.4,5.6s13.2-4.3,17.7-8.7
			c4.5-4.4,5.5-7.4,5.5-7.4s-0.1,7.6-2.2,9.4s5.2,1.9,11.1-0.5c5.8-2.4,10.8-5.6,10.8-5.6s0,5.5-2.6,8.2s6.4,1,10.5-1.3
			c4.1-2.2,13.5-8.3,13.8-15.9S1099.6,1254.6,1090.7,1258.1z"/>
		<path class="st0" d="M1090.3,1257.3c0,0-5.2,6.6-12.5,11.1c-7.3,4.6-13.5,4.9-14.3,6.2c-0.8,1.4,9.1,3.9,14.3,3.5
			c5.2-0.3,6.9-3.5,6.9-3.5s-5,5.9-5,8.8s-2,7.1,0.6,6.2s10.9-6.4,10.9-6.4s-3.2,5.2-3.2,8.6s-0.4,5.7,0.4,5.7s12.5-5.7,16.4-10.6
			c3.8-4.9,4.4-8.1,4.4-8.1s1,7.8-0.8,9.8s5.5,1.4,10.9-1.7s9.9-6.8,9.9-6.8s0.8,5.6-1.4,8.6c-2.2,3,6.5,0.3,10.2-2.4
			c3.7-2.7,12.2-9.8,11.4-17.6C1148.4,1261.2,1098.5,1252.9,1090.3,1257.3z"/>
		<g class="st1">
			<path class="st2" d="M1064.8,1275.1c0.6,1.1,8.3,2,13.1,1.8s10.9-5.6,10.9-5.6s-7.6,10.7-8.5,13.8c-0.9,3-1.9,5.4-1,4.7
				c0.8-0.7,11.9-5.7,15.4-9.5c3.4-3.8,17.4-19.9-5.9-14.6c0,0-10.3,6.5-16.7,7.4C1065.8,1274,1064.2,1274,1064.8,1275.1z"/>
			<path class="st2" d="M1089.1,1297.4c0.7-0.3,12.1-6.5,16.2-12.5s6.1-12.5,5.3-14.8c-0.8-2.2-12.6,11.8-18.1,18
				C1087.1,1294.4,1087.2,1298.2,1089.1,1297.4z"/>
			<path class="st2" d="M1109.9,1289.3c1.3-0.3,10.2-1.8,18.2-9.3c7.9-7.5,7.1-12.9,6-13.9s-10.1,6.1-17.6,13.4
				C1109,1286.9,1107.1,1289.9,1109.9,1289.3z"/>
			<path class="st2" d="M1137,1273.8c-0.9,7.1-8.6,15.6-8.6,15.6c-1.1,1.3,4.2,1.1,13.2-7.9s-1.1-17.6-3.6-18.2
				C1135.6,1262.7,1137.9,1266.7,1137,1273.8z"/>
		</g>
		<g class="st3">
			<path class="st2" d="M1111.7,1289.4c2.9-0.4,8.8-3.8,8.8-3.8c2.6-2.1-5,1.5-7.1,2.3c-2.2,0.7-2.2,0-2.1-2.6s-1-8.6-1-8.6
				s-0.1,1.7-0.1,4.9s-1.2,6.6-1.4,7.2S1108.7,1289.8,1111.7,1289.4z"/>
			<path class="st2" d="M1064.2,1275.2c0.3,0.7,7.2,2.9,11.9,2.3s8.3-2.5,8.3-2.5s-8.5,2.3-12.5,1.6s-5.2-1.4-4.7-1.7
				c0.5-0.3,15.8-2.9,17-6.4c0,0-9.4,4.6-14.5,5.1C1064.5,1274,1063.9,1274.5,1064.2,1275.2z"/>
			<path class="st2" d="M1079.9,1285.1c-0.3,3.9-0.9,4.4-0.5,4.7c0.3,0.3,9.3-4.8,9.3-5.1c0-0.3-6.4,2.7-6.6,1.7s4.4-11.6,4.4-11.6
				S1080.2,1281.3,1079.9,1285.1z"/>
			<path class="st2" d="M1088.1,1297.2c0,0,2.4-8.8,3.8-11.6c1.3-2.8-2.9,2-3.5,5.8C1087.8,1295.2,1088.1,1297.2,1088.1,1297.2z"/>
			<path class="st2" d="M1128.7,1290c0.7,0,6.3-1.7,9.6-4.4c3.3-2.6,4.8-5.1,4.8-5.1s-10.8,7.3-11.8,7.4c-0.9,0.1,0.8-7.8,0.4-8.8
				c-0.3-1-1.4,2.1-1.4,2.1s-0.4,5.3-1.5,7.1C1127.8,1290.2,1128,1290,1128.7,1290z"/>
		</g>
	</g>
	<g>
		<path class="st4" d="M1487.2,1535.2c0,0-8.4,1-16.9-0.7s-13.3-5.8-14.9-5.4s4,8.8,8.1,12.1s7.5,2.2,7.5,2.2s-7.8,0.7-9.8,2.7
			s-6.4,3.5-3.9,4.7s12.5,2.9,12.5,2.9s-6,1.4-8.3,3.8c-2.3,2.3-4.3,3.7-3.7,4.2s13.2,4.5,19.4,3.7c6.2-0.8,8.9-2.6,8.9-2.6
			s-4.6,6.1-7.4,6.2c-2.7,0.2,3.1,4.6,9.2,6.2s11.9,2,11.9,2s-3.3,4.4-7,5s4.5,4.6,9.1,5.3c4.6,0.6,15.7,1.5,20.5-4.5
			C1527.2,1577.2,1496.3,1537.7,1487.2,1535.2z"/>
		<path class="st0" d="M1487.3,1534.3c0,0-8.2,2.1-16.7,1.4s-13.8-4.2-15.2-3.6c-1.5,0.6,4.9,8.6,9.3,11.4s7.6,1.3,7.6,1.3
			s-7.6,1.7-9.3,4c-1.7,2.3-5.9,4.5-3.3,5.4s12.6,1.4,12.6,1.4s-5.7,2.2-7.8,5c-2,2.7-3.8,4.3-3.1,4.8c0.6,0.5,13.5,2.9,19.5,1.3
			s8.4-3.8,8.4-3.8s-3.9,6.8-6.5,7.3c-2.7,0.5,3.5,4.4,9.7,5.2c6.2,0.8,12,0.5,12,0.5s-2.7,4.9-6.3,6c-3.6,1.1,5,4.2,9.6,4.2
			c4.6,0.1,15.6-0.5,19.6-7.2C1531.5,1572.3,1496.5,1535.8,1487.3,1534.3z"/>
		<g class="st1">
			<path class="st2" d="M1456.3,1533.3c-0.2,1.3,5.4,6.6,9.4,9.3c4.1,2.7,12.1,2.1,12.1,2.1s-12.5,4.1-15.1,5.9
				c-2.6,1.9-4.7,3.2-3.7,3.2c1.1,0,13,2.6,18,1.6s25.8-5.5,4.1-15.2c0,0-12.1-1-17.8-4.1S1456.4,1532,1456.3,1533.3z"/>
			<path class="st2" d="M1462.3,1565.7c0.8,0.2,13.6,2.1,20.4-0.2c6.8-2.3,12.4-6.3,13.1-8.6c0.7-2.3-17.2,1.9-25.3,3.6
				C1462.5,1562.1,1460.3,1565.2,1462.3,1565.7z"/>
			<path class="st2" d="M1483.8,1571.7c1.2,0.6,9.2,4.7,20.1,3.5c10.9-1.3,13.4-6,13.1-7.5s-11.7-1.1-22.1,0.2
				S1481.2,1570.5,1483.8,1571.7z"/>
			<path class="st2" d="M1514.8,1575.6c-5,5.1-16.2,7.3-16.2,7.3c-1.6,0.4,2.7,3.4,15.3,1.6s9.7-14.8,8-16.7
				C1520.3,1565.9,1519.8,1570.5,1514.8,1575.6z"/>
		</g>
		<g class="st3">
			<path class="st2" d="M1485.1,1572.8c2.6,1.4,9.4,2.2,9.4,2.2c3.3-0.1-4.9-1.8-7.1-2.5s-1.8-1.3-0.1-3.3s4.3-7.5,4.3-7.5
				s-1.2,1.3-3,3.8s-4.9,4.5-5.5,4.9C1482.6,1570.9,1482.5,1571.4,1485.1,1572.8z"/>
			<path class="st2" d="M1455.7,1533c-0.1,0.7,4,6.7,8.2,9s8.1,2.9,8.1,2.9s-8.1-3.3-11-6.3c-2.8-3-3.3-4.2-2.7-4.2
				c0.6,0,14.4,7.1,17.5,5c0,0-10.2-1.9-14.7-4.6S1455.9,1532.3,1455.7,1533z"/>
			<path class="st2" d="M1462.3,1550.4c-2.6,2.9-3.3,3-3.2,3.4c0.1,0.4,10.3,1.8,10.4,1.5s-6.7-1.7-6.3-2.6s10.5-6.6,10.5-6.6
				S1464.8,1547.4,1462.3,1550.4z"/>
			<path class="st2" d="M1461.6,1564.9c0,0,7.2-5.6,10-7c2.7-1.4-3.5-0.1-6.3,2.5C1462.6,1563.1,1461.6,1564.9,1461.6,1564.9z"/>
			<path class="st2" d="M1498.4,1583.5c0.6,0.4,6.1,2.4,10.3,2.3c4.2-0.1,6.9-1.2,6.9-1.2s-13.1-0.6-13.9-1.1s5.3-5.8,5.6-6.8
				c0.3-1-2.4,0.9-2.4,0.9s-3.5,4-5.5,4.8C1497.6,1583.1,1497.8,1583.1,1498.4,1583.5z"/>
		</g>
	</g>
</g>
</svg>
