<?xml version="1.0" encoding="utf-8"?>
<!-- Generator: Adobe Illustrator 24.1.2, SVG Export Plug-In . SVG Version: 6.00 Build 0)  -->
<svg version="1.1" id="Camada_1" xmlns="http://www.w3.org/2000/svg" xmlns:xlink="http://www.w3.org/1999/xlink" x="0px" y="0px"
	 viewBox="0 0 74 74" style="enable-background:new 0 0 74 74;" xml:space="preserve">
<style type="text/css">
	.st0{fill:#FFFFFF;}
</style>
<g>
	<circle class="st0" cx="37" cy="37" r="6"/>
	<path class="st0" d="M48.8,21H25.3c-2.3,0-4.3,1.9-4.3,4.3v23.5c0,2.3,1.9,4.3,4.3,4.3h23.5c2.3,0,4.3-1.9,4.3-4.3V25.3
		C53,22.9,51.1,21,48.8,21z M37,47c-5.5,0-10-4.5-10-10c0-5.5,4.5-10,10-10c5.5,0,10,4.5,10,10C47,42.5,42.5,47,37,47z M47,29
		c-1.1,0-2-0.9-2-2s0.9-2,2-2c1.1,0,2,0.9,2,2S48.1,29,47,29z"/>
	<path class="st0" d="M37,0C16.6,0,0,16.6,0,37c0,20.4,16.6,37,37,37c20.4,0,37-16.6,37-37C74,16.6,57.5,0,37,0z M57,48.8
		c0,4.6-3.7,8.3-8.3,8.3H25.3c-4.6,0-8.3-3.7-8.3-8.3V25.3c0-4.6,3.7-8.3,8.3-8.3h23.5c4.6,0,8.3,3.7,8.3,8.3V48.8z"/>
</g>
<g>
</g>
<g>
</g>
<g>
</g>
<g>
</g>
<g>
</g>
<g>
</g>
<g>
</g>
<g>
</g>
<g>
</g>
<g>
</g>
<g>
</g>
</svg>
