<?xml version="1.0" encoding="utf-8"?>
<!-- Generator: Adobe Illustrator 25.2.1, SVG Export Plug-In . SVG Version: 6.00 Build 0)  -->
<svg version="1.1" id="Camada_1" xmlns="http://www.w3.org/2000/svg" xmlns:xlink="http://www.w3.org/1999/xlink" x="0px" y="0px"
	 viewBox="0 0 402.7 101.8" style="enable-background:new 0 0 402.7 101.8;" xml:space="preserve">
<style type="text/css">
	.st0{fill-rule:evenodd;clip-rule:evenodd;fill:url(#SVGID_1_);}
	.st1{opacity:0.35;fill-rule:evenodd;clip-rule:evenodd;fill:url(#SVGID_2_);}
</style>
<linearGradient id="SVGID_1_" gradientUnits="userSpaceOnUse" x1="199.9068" y1="177.5812" x2="203.3335" y2="-1.9775">
	<stop  offset="0" style="stop-color:#B5E1FA"/>
	<stop  offset="0.4517" style="stop-color:#D2EBF6"/>
	<stop  offset="1" style="stop-color:#EDF6F1"/>
</linearGradient>
<path class="st0" d="M402.7,101.8L0,100.7c0,0,1.7-4.1,4.6-9.6c5.5-10.3,15.9-25.2,28-30.1c11.2-4.5,13.9,4.4,14.7,9
	c0.6,3.7-0.5,7.4-0.8,8.2c0.5-1.3,3.7-9.7,8.8-19c6.1-11.2,15-23.7,25.2-26.1c15.5-3.6,17.8,23.6,17.9,38c0,5-0.2,8.4-0.2,8.4
	s0.7-3.8,2.1-8.7c2.4-9,6.8-22,12.3-23c5.1-0.9,6.5,4.9,6.8,9.9c0.2,3.5-0.1,6.6-0.1,6.6s0.6-2.1,2.3-4.3c1.8-2.3,4.9-4.8,10.1-5.3
	c8.1-0.7,16.9,11.7,20.6,17.3c1,1.5,1.6,2.6,1.6,2.7c0-0.5-1.5-13.7,0.6-28.5l0,0C157,28.1,165.1,6.6,190.1,1
	c41.9-9.5,91.1,53.6,110.8,81.9c4.9,7.1,7.7,11.5,7.7,11.5s8.2-15.8,38.8-16.9C381.1,76.2,402.7,101.8,402.7,101.8z"/>
<linearGradient id="SVGID_2_" gradientUnits="userSpaceOnUse" x1="201.0791" y1="39.6567" x2="201.5169" y2="133.3637">
	<stop  offset="0" style="stop-color:#FFFFFF"/>
	<stop  offset="0.1417" style="stop-color:#EBEBF7"/>
	<stop  offset="0.4395" style="stop-color:#B7BADF"/>
	<stop  offset="0.8655" style="stop-color:#6271B5"/>
	<stop  offset="1" style="stop-color:#455CA7"/>
</linearGradient>
<path class="st1" d="M401,99.9c-24.8,0.1-59.6-2.4-81.7-15.5c-8,4.6-10.8,9.9-10.8,9.9s-2.8-4.5-7.7-11.5
	c-7.5,9.2-37.2,14-58.5,12.4c-50.7-3.9-80-39.3-87.9-48.7c-2.1,14.8-0.6,28-0.6,28.5c-0.1-0.1-0.7-1.1-1.6-2.7
	c-2.3,2.9-8.3,7-21.7-1.2c-5.2-3.2-7.8-7-9-10.8c-1.7,2.2-2.3,4.3-2.3,4.3s0.3-3.1,0.1-6.6c-2.1,5.6-4.7,11.2-7.5,13.7
	c-5.4,4.9-10.1,0.9-11.6-0.7c-1.1,4.2-1.8,7.5-2,8.4c0-0.5,0-1.5,0-3.5c-4.7,2.4-34.1,16.7-43-16.6c-4.9,8.9-8.1,17.2-8.7,18.8
	c0.3-1,1.3-4.6,0.8-8.1c-5,6.5-20.4,30.6-42.7,21.1c-2.9,5.5-4.6,9.6-4.6,9.6l402.7,1C402.7,101.8,402.1,101.1,401,99.9z M22.8,95.6
	c21.6-22.4,63.3-11.1,63.3-11.1s-15.7,6.9-37.2,10.2C29.6,97.6,22.8,95.6,22.8,95.6z M74.7,98.1c-9.6-3.1-8.9-3.8-8.9-3.8l6.1-3.2
	c17.3-7.9,39.1,7.3,39.1,7.3S84.9,101.3,74.7,98.1z M110.2,94.9c-18.5-5.1-16.7-12.5-16.7-12.5c33.5-23.3,76.8,17.8,76.8,17.8
	S129.3,100.2,110.2,94.9z M150.2,82.7c0,0,11.6-13.1,25.8-10.1c14.6,3,17.4,24.4,17.4,24.4C162.1,94.9,150.2,82.7,150.2,82.7z
	 M297.2,98.6c-5.5,2.1-43.2,0.9-46.3,1.1c2.6-0.7,31-10.6,48.1-4C299,95.7,303.1,96.5,297.2,98.6z"/>
<g>
</g>
<g>
</g>
<g>
</g>
<g>
</g>
<g>
</g>
<g>
</g>
</svg>
