<?xml version="1.0" encoding="utf-8"?>
<!-- Generator: Adobe Illustrator 25.2.1, SVG Export Plug-In . SVG Version: 6.00 Build 0)  -->
<svg version="1.1" id="Camada_1" xmlns="http://www.w3.org/2000/svg" xmlns:xlink="http://www.w3.org/1999/xlink" x="0px" y="0px"
	 viewBox="0 0 528.5 115.6" style="enable-background:new 0 0 528.5 115.6;" xml:space="preserve">
<style type="text/css">
	.st0{fill-rule:evenodd;clip-rule:evenodd;fill:url(#SVGID_1_);}
	.st1{fill-rule:evenodd;clip-rule:evenodd;fill:url(#SVGID_2_);}
	.st2{opacity:0.5;fill-rule:evenodd;clip-rule:evenodd;fill:url(#SVGID_3_);}
	.st3{fill-rule:evenodd;clip-rule:evenodd;fill:url(#SVGID_4_);}
	.st4{opacity:0.5;fill-rule:evenodd;clip-rule:evenodd;fill:url(#SVGID_5_);}
	.st5{fill-rule:evenodd;clip-rule:evenodd;fill:url(#SVGID_6_);}
</style>
<g>
	<linearGradient id="SVGID_1_" gradientUnits="userSpaceOnUse" x1="328.0723" y1="84.6248" x2="329.1549" y2="9.9225">
		<stop  offset="0" style="stop-color:#B5E1FA"/>
		<stop  offset="0.4517" style="stop-color:#D2EBF6"/>
		<stop  offset="1" style="stop-color:#EDF6F1"/>
	</linearGradient>
	<path class="st0" d="M528.5,82.7c0,0-48.8-4.7-56.2-1c-7.4,3.7-344.7-0.5-344.7-0.5s3.1-23.1,21.8-40.8
		c8.4-7.9,19.9-14.7,35.6-17.9c50.9-10.2,74.2,35.9,74.2,35.9s-0.1-1.1,0.2-2.7c0,0,0,0,0,0c0.3-1.8,1.2-4.2,3.4-6.6
		c2.4-2.7,6.4-5.4,13-7.3c13-3.6,28.4,8.8,36.1,16.1l0,0c2.9,2.7,4.7,4.8,4.9,5c-0.2-0.8-5.4-21.9,4.3-39.4
		C328,11.3,341.9,0.9,369.8,0c40.1-1.2,71.4,24.8,90.6,46.8C474.1,62.6,528.5,82.7,528.5,82.7z"/>
	
		<linearGradient id="SVGID_2_" gradientUnits="userSpaceOnUse" x1="-139.6054" y1="311.1735" x2="-132.4839" y2="290.5323" gradientTransform="matrix(0.9803 -0.1974 0.1974 0.9803 91.2187 -217.1081)">
		<stop  offset="0" style="stop-color:#B5E1FA"/>
		<stop  offset="0.4517" style="stop-color:#D2EBF6"/>
		<stop  offset="1" style="stop-color:#EDF6F1"/>
	</linearGradient>
	<path class="st1" d="M1.2,109.7c15.6-21.7,31.3,2.1,31.3,2.1S-7.4,121.7,1.2,109.7z"/>
	<linearGradient id="SVGID_3_" gradientUnits="userSpaceOnUse" x1="330.0933" y1="36.35" x2="325.0408" y2="152.5542">
		<stop  offset="0" style="stop-color:#FFFFFF"/>
		<stop  offset="0.1417" style="stop-color:#EBEBF7"/>
		<stop  offset="0.4395" style="stop-color:#B7BADF"/>
		<stop  offset="0.8655" style="stop-color:#6271B5"/>
		<stop  offset="1" style="stop-color:#455CA7"/>
	</linearGradient>
	<path class="st2" d="M460.3,46.8c-19.3,26.4-90,35.8-121.8,27.7c-28.5-7.2-21.6-38.1-17.3-51.1c-9.7,17.5-4.5,38.6-4.3,39.4
		c-0.2-0.3-2-2.3-4.9-5c7.2,12.9,8.5,22.1-3.8,22.1c-48.4,0-48.4-27.6-45.4-31c-2.2,2.4-3.1,4.9-3.4,6.6c0,0,0,0,0,0
		c0.6,4.8,0.6,9.3-1.1,11.3c-3.7,4.6-88.3,15.5-109-26.6c-18.7,17.7-21.8,40.8-21.8,40.8s337.3,4.2,344.7,0.5c7.4-3.7,56.2,1,56.2,1
		S474.1,62.6,460.3,46.8z M280.3,80c-4.3,0.5-55.6-1.5-36.4-8.3C264.3,64.5,284.7,79.4,280.3,80z M443,76.5c-13.5,7.3-26.5,3-26.5,3
		s10.5-14.4,44.4-21.1C460.9,58.3,456.5,69.2,443,76.5z"/>
	<linearGradient id="SVGID_4_" gradientUnits="userSpaceOnUse" x1="145.7354" y1="126.4142" x2="180.6896" y2="25.1014">
		<stop  offset="0" style="stop-color:#B5E1FA"/>
		<stop  offset="0.4517" style="stop-color:#D2EBF6"/>
		<stop  offset="1" style="stop-color:#EDF6F1"/>
	</linearGradient>
	<path class="st3" d="M228,109.4l-106.8,0.3l-46.1,0.1c7-16.2,19-15.8,28.6-12.6c0,0,0.1,0,0.1,0c7.9,2.6,14.2,7.1,14.7,5.5
		c0.8-2.8-6.6-20.9,21.1-31.9c6.6-2.6,15.2-4.9,26.5-6.4c37.2-5,52.2,14.8,58.2,29.8C227.5,102.6,228,109.4,228,109.4z"/>
	<linearGradient id="SVGID_5_" gradientUnits="userSpaceOnUse" x1="167.8195" y1="83.7037" x2="161.4764" y2="147.4688">
		<stop  offset="0" style="stop-color:#FFFFFF"/>
		<stop  offset="0.1417" style="stop-color:#EBEBF7"/>
		<stop  offset="0.4395" style="stop-color:#B7BADF"/>
		<stop  offset="0.8655" style="stop-color:#6271B5"/>
		<stop  offset="1" style="stop-color:#455CA7"/>
	</linearGradient>
	<path class="st4" d="M224.1,94.2c-2.8,2.8-6.4,5.2-10.9,6.8c-25.6,9.2-90.5-13.6-73.7-30.3c-27.6,11-20.3,29.1-21.1,31.9
		c-0.4,1.6-6.7-2.9-14.7-5.5c11.9,4.6,11.7,12,11.7,12l5.7,0.5l106.8-0.3C228,109.4,227.5,102.6,224.1,94.2z M133.1,105.2
		c-7.2-5.2,2.7-10.8,2.7-10.8c18.8-5.3,31.1,13,31.1,13S140.3,110.3,133.1,105.2z"/>
	<linearGradient id="SVGID_6_" gradientUnits="userSpaceOnUse" x1="486.2332" y1="79.0834" x2="483.4848" y2="35.5433">
		<stop  offset="0" style="stop-color:#B5E1FA"/>
		<stop  offset="0.4517" style="stop-color:#D2EBF6"/>
		<stop  offset="1" style="stop-color:#EDF6F1"/>
	</linearGradient>
	<path class="st5" d="M472.8,70.4c-13.7-12.3-13-32.5-0.7-39c23.4-12.4,35.7,45.1,35.7,45.1S486.5,82.7,472.8,70.4z"/>
</g>
<g>
</g>
<g>
</g>
<g>
</g>
<g>
</g>
<g>
</g>
<g>
</g>
</svg>
