<?xml version="1.0" encoding="utf-8"?>
<!-- Generator: Adobe Illustrator 24.1.2, SVG Export Plug-In . SVG Version: 6.00 Build 0)  -->
<svg version="1.1" id="Camada_1" xmlns="http://www.w3.org/2000/svg" xmlns:xlink="http://www.w3.org/1999/xlink" x="0px" y="0px"
	 viewBox="0 0 74 74" style="enable-background:new 0 0 74 74;" xml:space="preserve">
<style type="text/css">
	.st0{fill:#FFFDFD;}
</style>
<path class="st0" d="M37,0C16.6,0,0,16.6,0,37c0,20.4,16.6,37,37,37c20.4,0,37-16.6,37-37C74,16.6,57.5,0,37,0z M61.3,53
	c-0.6,1.5-1.2,2.9-1.8,4.4c-1.5,3.9-6.9,5.5-11.6,2.9c-14.3-7.9-26.1-19.7-34-34c-2.6-4.7-1.1-10.1,2.9-11.6
	c1.5-0.6,2.9-1.2,4.4-1.8c1.9-0.7,4,0.2,4.9,2c1.2,2.5,2.5,4.9,4,7.2c1.1,1.7,0.7,4-0.9,5.2c-1.1,0.8-2.1,1.5-3.2,2.3
	c5.2,7.3,11.5,13.7,18.8,18.8c0.8-1.1,1.5-2.1,2.3-3.2c1.2-1.6,3.5-2,5.2-0.9c2.3,1.5,4.7,2.8,7.2,4C61.1,49,62,51.2,61.3,53z"/>
<g>
</g>
<g>
</g>
<g>
</g>
<g>
</g>
<g>
</g>
<g>
</g>
<g>
</g>
<g>
</g>
<g>
</g>
<g>
</g>
<g>
</g>
</svg>
