<?xml version="1.0" encoding="utf-8"?>
<!-- Generator: Adobe Illustrator 24.1.2, SVG Export Plug-In . SVG Version: 6.00 Build 0)  -->
<svg version="1.1" id="Camada_1" xmlns="http://www.w3.org/2000/svg" xmlns:xlink="http://www.w3.org/1999/xlink" x="0px" y="0px"
	 viewBox="0 0 74 74" style="enable-background:new 0 0 74 74;" xml:space="preserve">
<style type="text/css">
	.st0{fill:#FFFFFF;}
</style>
<g>
	<path class="st0" d="M37,16.3c-11.2,0-20.4,9.1-20.4,20.4c0,3.9,1.1,7.7,3.2,11l0.4,0.6l-2.2,8.1l8.4-2.2l0.6,0.3
		c3,1.7,6.4,2.6,9.9,2.6c11.2,0,20.4-9.1,20.4-20.4C57.4,25.4,48.3,16.3,37,16.3z M49.3,44.8c-0.3,0.7-0.6,1.5-0.9,2.2
		c-0.8,2-3.5,2.8-5.9,1.4c-7.2-4-13.2-10-17.2-17.2c-1.3-2.4-0.5-5.1,1.4-5.9c0.7-0.3,1.5-0.6,2.2-0.9c0.9-0.4,2,0.1,2.5,1
		c0.6,1.3,1.3,2.5,2,3.6c0.5,0.9,0.4,2-0.5,2.6c-0.5,0.4-1.1,0.8-1.6,1.1c2.6,3.7,5.8,6.9,9.5,9.5c0.4-0.5,0.8-1.1,1.1-1.6
		c0.6-0.8,1.7-1,2.6-0.5c1.2,0.7,2.4,1.4,3.6,2C49.2,42.7,49.6,43.8,49.3,44.8z"/>
	<path class="st0" d="M37,0C16.6,0,0,16.6,0,37c0,20.4,16.6,37,37,37c20.4,0,37-16.6,37-37C74,16.6,57.5,0,37,0z M37,60.4
		c-3.8,0-7.6-0.9-10.9-2.7l-12.8,3.4l3.3-12.3c-2.2-3.7-3.4-7.9-3.4-12.2c0-13.1,10.7-23.8,23.8-23.8c13.1,0,23.8,10.7,23.8,23.8
		C60.8,49.7,50.1,60.4,37,60.4z"/>
</g>
<g>
</g>
<g>
</g>
<g>
</g>
<g>
</g>
<g>
</g>
<g>
</g>
<g>
</g>
<g>
</g>
<g>
</g>
<g>
</g>
<g>
</g>
</svg>
